/* XPM */
static char *b6951f5c9c734deacef28ea316aa7a1dNWylnIn7fsvPSVnz[] = {
/* columns rows colors chars-per-pixel */
"32 32 249 2 ",
"   c #2A5B0D",
".  c #2A5813",
"X  c #2C5213",
"o  c #2E660B",
"O  c #33630B",
"+  c #3A6A0C",
"@  c #3C750D",
"#  c #3A6312",
"$  c #3C6D14",
"%  c #386817",
"&  c #3B7117",
"*  c #2F6910",
"=  c #3B6C24",
"-  c #46770E",
";  c #446B19",
":  c #457A13",
">  c #4B7C1C",
",  c #467718",
"<  c #547E1C",
"1  c #466C25",
"2  c #4A7324",
"3  c #4A7B25",
"4  c #487929",
"5  c #557A29",
"6  c #4E7237",
"7  c #567B37",
"8  c #506434",
"9  c #647B33",
"0  c #4F5B2B",
"q  c #546643",
"w  c #597946",
"e  c #5E7053",
"r  c #697351",
"t  c #766D76",
"y  c #388119",
"u  c #4A8215",
"i  c #4C821D",
"p  c #4A8519",
"a  c #54841C",
"s  c #558B1A",
"d  c #59951B",
"f  c #48880F",
"g  c #638C1B",
"h  c #65981D",
"j  c #63971C",
"k  c #4C8628",
"l  c #538423",
"z  c #548A24",
"x  c #5A8B23",
"c  c #5D8B2B",
"v  c #58842A",
"b  c #5A9526",
"n  c #5A8337",
"m  c #4F9028",
"M  c #628928",
"N  c #669628",
"B  c #678936",
"V  c #689935",
"C  c #759437",
"Z  c #749D2B",
"A  c #6BA42E",
"S  c #76A42C",
"D  c #6EA639",
"F  c #79AA38",
"G  c #6F8D4C",
"H  c #5CA95E",
"J  c #76AC41",
"K  c #74AF73",
"L  c #479465",
"P  c #89B239",
"I  c #809744",
"U  c #87AC51",
"Y  c #899377",
"T  c #8AA461",
"R  c #8BC449",
"E  c #776E82",
"W  c #5B3DC9",
"Q  c #2A54FB",
"!  c #2F6EFD",
"~  c #386AFB",
"^  c #377AFE",
"/  c #5A63CD",
"(  c #7558EC",
")  c #4979FC",
"_  c #5276FE",
"`  c #7071F1",
"'  c #6F7CC7",
"]  c #917DB4",
"[  c #A83CE9",
"{  c #8D35F0",
"}  c #B05EDE",
"|  c #9376D6",
" . c #AD74CC",
".. c #AE51F2",
"X. c #967FEE",
"o. c #B073EF",
"O. c #D268F3",
"+. c #C679F3",
"@. c #D678F6",
"#. c #CA6DEE",
"$. c #E861F6",
"%. c #6CB291",
"&. c #67B4A9",
"*. c #5ECD97",
"=. c #7CD79F",
"-. c #5ED9B0",
";. c #63CDBF",
":. c #3587FF",
">. c #3C96FF",
",. c #2F81FF",
"<. c #6C84DD",
"1. c #5DB2D1",
"2. c #5CAFCA",
"3. c #6CACD1",
"4. c #5A89FD",
"5. c #4598FF",
"6. c #5C94FE",
"7. c #5495FE",
"8. c #5081F6",
"9. c #648BFC",
"0. c #6898FE",
"q. c #729CFE",
"w. c #7297FB",
"e. c #7491E8",
"r. c #47A5FF",
"t. c #5BA9FF",
"y. c #58B6FD",
"u. c #4CB4FF",
"i. c #7BB8EA",
"p. c #6AA4FF",
"a. c #69ACFD",
"s. c #74A3FD",
"d. c #7CABFF",
"f. c #74A8FC",
"g. c #64B5FE",
"h. c #69BFFF",
"j. c #78BBFF",
"k. c #74ABE9",
"l. c #6BC2CD",
"z. c #6DCAD3",
"x. c #7FC7D7",
"c. c #72DACE",
"v. c #7DF4DB",
"b. c #73E9D8",
"n. c #5AC5FC",
"m. c #55CFF5",
"M. c #6AC6FB",
"N. c #69D7FD",
"B. c #7AD7FB",
"V. c #76C9EB",
"C. c #59E6FC",
"Z. c #76EAF5",
"A. c #9597BB",
"S. c #928D9B",
"D. c #9092CF",
"F. c #9AA8D9",
"G. c #AFAED4",
"H. c #9697F6",
"J. c #9590F3",
"K. c #AF92EF",
"L. c #93A6ED",
"P. c #87B8E4",
"I. c #87BAFD",
"U. c #97B9FB",
"Y. c #8DACED",
"T. c #B5A9EE",
"R. c #A9B4E9",
"E. c #A3BAF6",
"W. c #AEB0EF",
"Q. c #AF88DC",
"!. c #C8A6D7",
"~. c #C795E7",
"^. c #C789F7",
"/. c #DD98F9",
"(. c #CF93EE",
"). c #E688F9",
"_. c #E396F4",
"`. c #CDB0F3",
"'. c #E8BAF9",
"]. c #E9A8F9",
"[. c #D094DD",
"{. c #8BD1D8",
"}. c #BBCAD6",
"|. c #8CEFD6",
" X c #B4E4C3",
".X c #96CDEB",
"XX c #97D6E9",
"oX c #87C9FD",
"OX c #9AC7FA",
"+X c #8BD6FA",
"@X c #9DD4F8",
"#X c #8EC0E8",
"$X c #AACBEA",
"%X c #B6C9EA",
"&X c #A6D8E8",
"*X c #ABCBF5",
"=X c #A4CCFE",
"-X c #A6CAF9",
";X c #B6C5F5",
":X c #ABDDF4",
">X c #A3D3FE",
",X c #ACD1FD",
"<X c #A8D7F9",
"1X c #BCD5FB",
"2X c #BCDEFD",
"3X c #B4D9FA",
"4X c #B8D5E7",
"5X c #97E3EA",
"6X c #88F1E5",
"7X c #97F6E2",
"8X c #86E7FA",
"9X c #98E7FC",
"0X c #8EE9EA",
"qX c #A7E3E6",
"wX c #A4F7E8",
"eX c #B5F3E4",
"rX c #AAE7FA",
"tX c #B8E8FA",
"yX c #BCF3FE",
"uX c #B4F3FE",
"iX c #BFEDE8",
"pX c #C7D6CB",
"aX c #CAC6EB",
"sX c #C9DDE9",
"dX c #C6C7F6",
"fX c #C2DCFF",
"gX c #C6D7F7",
"hX c #D7D2EE",
"jX c #EBCBFA",
"kX c #F2C9FC",
"lX c #EBD4F7",
"zX c #F2D4FA",
"xX c #E4C7E8",
"cX c #C7E7E5",
"vX c #D8E7E7",
"bX c #C7E4F8",
"nX c #DAE8F8",
"mX c #C3F3FD",
"MX c #CCF5FE",
"NX c #CBFAF3",
"BX c #DCF5FE",
"VX c #D7F6FE",
"CX c #D6F6EF",
"ZX c #E8E8F7",
"AX c #E3F4FC",
"SX c #ECFAFE",
"DX c #E5F6FA",
"FX c #F2FCFF",
"GX c #EBECF4",
/* pixels */
"> v c a N l O , + S > < < 3 t ~.Q.8 > a D B 5 4 b ;   R ; c U u ",
"d B P S % C g N s x S 6 A.A.D.T.J.W.G.6 g 2 : > A 2 s 5 u z k , ",
"S - O n > # N   X w ] zXZXF.R.J.H.2X,X>XG.6 C 5 : , > h ; V : o ",
"$ F p 2 k k M Y  . .+.^.@.| ' X.J.Y.OXU.9X;X .7 : > u @ - $ & D ",
"3 V A m 3 w K.| J.e.$.[ { W / ( ` k.+X8X9X9X>XU.R.6 b s + z i M ",
"C : x e '.^.).).^.gXK.....o.J.( ` w.M.m.N.B.9X+XoX9XA.r G a & p ",
"U r )./.o.`.).W._.nXoXy.5.5.:.! ! ^ 7.g.B.9Xf.M.B.8X8X9XD.n k s ",
"$ O./.@.K.;XOX@XjXoXM.j.g.y.a.t.y.y.u.r.r.r.) m.y.8X8XZ.N.R.i @ ",
"a } ]./.....;X1XoXN.j.FXSXSXFXSXAXbX,XI.h.N.5.9X8Xa.a.n.B.,Xx > ",
"s ~._...^.+.O.X.h.y.FXSXSXSXSXSXFXFXFXSXDXB.u.M.C.n.s.oX>XtX% > ",
", #.kXO..._.`.p.^ BXSXSXSXSXSXSXSXSXSXSXAX+X:.! m.B.+X<X,XrXs 2 ",
"*  .zXkXlXxX_ g.U.BXMXDXDXoXM.oX@X3XFXBXMXrX,.^ 9X>X=X3X3X&XM % ",
"= E kXkXzXfX0.Q cXBXMXMXXXg.n.n.y.5.SXmXyXqXt.f.<X>XU.>XtXG.# Z ",
"3 t GX'.zXaX1XOX~ 3.AX4X7.,.>.>.^ p.MXrXVXBX1Xd.w.rX>X=XtXS.% N ",
"u q '.kXnXnXzX;XfX4.~ e.t.8.OXmXmXrXyXVXAXSXZXI.q.tXrX3XtXY s $ ",
"- e ~.jXjXjXzXkXhX1XOX) Q AXAXyXuXVXCXvXsXU.0.d.d.E.tXuXuXT * 4 ",
"B G o.).dXgXkX'.jXzX;XfX0.BXVXMXcX$Xq.0.0.s.f.q.e.L.=XtXyXw P 5 ",
"v 9 @.E.L.W.].T.gXnXGXnXfXSXcXDXvXI.q.6.4.<.F.;X2XE.E.mXMXn u N ",
"d 3 @.T.@.O.W.$XnXjXzXbXbX) ~ 9.s.I.9.}.bXL.;XH.-XbX-X3XmX& c b ",
"> < Q.).O.#.aX~.`.hXZX2XfX9.~ 4.6.q.9.CXcXXXP.L.;XhX:X2XmXh l , ",
"a v ~.`.K.[.[.!.|.b.5XOX=XSXvXAXAXI.0.@X$XvXcX&XP.Y.1XtXzXO > N ",
"5 b %X(.~.!.qX6X1.1.v.a.s.FXVXDXvXI.q.3XE.sXcXXX5Xi.OXbX'.0 ; z ",
"; o %.aX%X{.7Xb.1.3.6X6.9.FXVXDXvXI.q.1XOX:XXX@X0X6XXX#XpXw 7 F ",
"i - N &.7Xv.3.k.i.Y.V.p.4.bX}.vXvXU.s.@X.X7X7X5XXX5X|.eX; v > l ",
"l d V l L P.*XOX2.3.-Xp.t.,X7.a.s.d.d.bXeXXXXXwXwXiX=.v 1 a % y ",
"G l x s N m ;.x.b.z.*X%Xi.*X8.w.w.w.w.3X:X@X<XwXeXT 2 u z 5 &   ",
", ; x + V ; u *.|.v.z.x.c.qXc..XtX:XrX-X>XtXNX X$ > D 1 N G @ - ",
"O X z b m V # & H c.c.l.l.{.R.dX*X@X<XZX1XtXT M N 2 < Z   A > i ",
"s 7 1 k ; h v : B w -.c.x.XXR.dX*X-X-X&X|.N c X $ N > + O p > + ",
"N V k 2 @ , O $ , 3 > %.P.dX4X-X@X<XCXK g a l 4 a o : c 4   U v ",
"d a k 5 5 > 2 p 3 C 9 N H .X{.x.XX|.D a i h & c l x x 8 c x 2 & ",
"# d x M n c a O C q h u l 4 pXv.%.N > s N , J m   d P 8 # p   P "
};
