/* XPM */
static char *result[] = {
/* columns rows colors chars-per-pixel */
"32 32 227 2 ",
"   c #010104",
".  c #04040C",
"X  c #09050C",
"o  c #0A0A0D",
"O  c #07080E",
"+  c #060611",
"@  c #060911",
"#  c #0A0B14",
"$  c #0D0D1A",
"%  c #080719",
"&  c #120F15",
"*  c #1A0E17",
"=  c #0E1015",
"-  c #0E111C",
";  c #111215",
":  c #13141B",
">  c #191A1D",
",  c #171819",
"<  c #250407",
"1  c #3C0203",
"2  c #320509",
"3  c #2A0D16",
"4  c #1C3012",
"5  c #25301E",
"6  c #131522",
"7  c #151825",
"8  c #1B1C24",
"9  c #1A1C2B",
"0  c #181827",
"q  c #161629",
"w  c #271F32",
"e  c #351622",
"r  c #1E2223",
"t  c #1C212A",
"y  c #1E2A20",
"u  c #1E2431",
"i  c #212326",
"p  c #24262A",
"a  c #25292C",
"s  c #292A2C",
"d  c #232B24",
"f  c #2D3C28",
"g  c #2C3927",
"h  c #232434",
"j  c #2D2E31",
"k  c #2B2B3C",
"l  c #262936",
"z  c #2C333B",
"x  c #2A3738",
"c  c #313336",
"v  c #353B3B",
"b  c #490406",
"n  c #5B0304",
"m  c #5A080A",
"M  c #640101",
"N  c #6B0001",
"B  c #67080B",
"V  c #7B0102",
"C  c #750304",
"Z  c #6D1318",
"A  c #6B0D12",
"S  c #712D33",
"D  c #274913",
"F  c #2A5615",
"G  c #335C17",
"H  c #2E580E",
"J  c #2E680A",
"K  c #39680C",
"L  c #2F6812",
"P  c #3B641B",
"I  c #396816",
"U  c #3D7214",
"Y  c #38701D",
"T  c #3D760F",
"R  c #2E4328",
"E  c #334828",
"W  c #365828",
"Q  c #2E4733",
"!  c #33493B",
"~  c #3A5437",
"^  c #2E5C21",
"/  c #366822",
"(  c #3E663E",
")  c #456B1C",
"_  c #456A17",
"`  c #437413",
"'  c #467B13",
"]  c #43741A",
"[  c #457B1D",
"{  c #4B7C1D",
"}  c #4B7819",
"|  c #4B7A12",
" . c #415C29",
".. c #425737",
"X. c #466828",
"o. c #467422",
"O. c #4B7423",
"+. c #4B7B24",
"@. c #4B762D",
"#. c #467A26",
"$. c #547B2C",
"%. c #557A27",
"&. c #456735",
"*. c #576934",
"=. c #4A7535",
"-. c #527D33",
";. c #537739",
":. c #516F2B",
">. c #667F2F",
",. c #2E3843",
"<. c #32354B",
"1. c #3A3E44",
"2. c #383C55",
"3. c #3A4548",
"4. c #394355",
"5. c #3A574F",
"6. c #3A4B61",
"7. c #474A58",
"8. c #45565F",
"9. c #494C4F",
"0. c #634D57",
"q. c #476448",
"w. c #546246",
"e. c #4F724C",
"r. c #677C41",
"t. c #444D63",
"y. c #475867",
"u. c #4E5C72",
"i. c #505B6C",
"p. c #775E6A",
"a. c #526C6A",
"s. c #55726A",
"d. c #676778",
"f. c #6E6F72",
"g. c #840000",
"h. c #890303",
"j. c #980001",
"k. c #861116",
"l. c #AA0000",
"z. c #A00000",
"x. c #B50101",
"c. c #822A2E",
"v. c #C40000",
"b. c #D20000",
"n. c #DA0101",
"m. c #E01515",
"M. c #C53139",
"N. c #853E41",
"B. c #835057",
"V. c #B15054",
"C. c #8C5F68",
"Z. c #86626E",
"A. c #D24F55",
"S. c #4B8314",
"D. c #4C821D",
"F. c #4A851A",
"G. c #54841C",
"H. c #568B18",
"J. c #5A961B",
"K. c #65971D",
"L. c #4C8322",
"P. c #4C862B",
"I. c #548424",
"U. c #548B22",
"Y. c #5A8B23",
"T. c #5E8B2C",
"R. c #57852B",
"E. c #5B9526",
"W. c #5D8537",
"Q. c #578D3A",
"!. c #628A22",
"~. c #659528",
"^. c #668738",
"/. c #669636",
"(. c #759834",
"). c #6BA42E",
"_. c #76A62D",
"`. c #6FA336",
"'. c #78A637",
"]. c #7CB439",
"[. c #5A8349",
"{. c #7A9A4C",
"}. c #7A9557",
"|. c #708D4B",
" X c #5D806B",
".X c #789866",
"XX c #86A235",
"oX c #87BC3C",
"OX c #8CB34A",
"+X c #88A86F",
"@X c #8BC449",
"#X c #727C92",
"$X c #736787",
"%X c #A27D87",
"&X c #78889E",
"*X c #7E86A1",
"=X c #908C99",
"-X c #AA8184",
";X c #91AB83",
":X c #828FA7",
">X c #9698A1",
",X c #A89AA2",
"<X c #99A5BC",
"1X c #96A3A6",
"2X c #A6AABB",
"3X c #AEB2BE",
"4X c #AFC1A8",
"5X c #C6D5B5",
"6X c #98A9C4",
"7X c #A3ADC3",
"8X c #A8ABC2",
"9X c #ABB4CA",
"0X c #B3BACA",
"qX c #A5B7D4",
"wX c #B7BFD4",
"eX c #BCC3D0",
"rX c #C4C8D8",
"tX c #D9DDDE",
"yX c #C2D0C0",
"uX c #E1E6D9",
"iX c #D5D9E7",
"pX c #DDE1ED",
"aX c #DEE3F3",
"sX c #E6E7EC",
"dX c #E8EAF7",
"fX c #FBFCFE",
"gX c #F4F6FD",
/* pixels */
"{ R.T.D.E.%.K ' K ).{ |.eXaXgXfXgX3XG.H.`.|.%.+.~.) H @X] T.OXF.",
"K.^.XX>.g ^.Y.~.H.U.'.1XeX3XrXgXfXfX+X` XX.XT.| ).@.H.%.S.U.P.L.",
"_.| J ;.c g ~.H D L.{.7X2Xc 9.sXfXfX5X;XiXgXuX+X' [ ] K._ /.U J ",
"U '.F.O.&.x :.`./ /..X<X<X1.9.sXgXfXiX0XiXtXtX5X[ } X.E R P U `.",
"#.).).U.+.) %.W , 4 s.7X7X8XeXaXdXgXrX8XiX>Xf.uXw.c c a t =.D.$.",
"(.S.Y.%.~.' ` W %   c 6X6XwXrXiXpXiX9X<XwXwXrXrX1.j a > x +.P f ",
"OX) L D D *.) ~ $   o &XqXqXwXrXrX8Xd.6X9XrXiX:Xl p : : ! =.g u ",
"U T.+.d   . # t q .   a #X6XqX:X7.c p i.6X:X$Xl > ; + 9 =.L W Y ",
"G.G.^.~ #     % $ + + # i 3.u.t = s j p h a s r ; o = 3.=.U U.O.",
"H.U ~.=.z . + % % @ 6 @ ; * $ @ @ : 0 : O # : = * > r x $.U.Y } ",
"` G.K.+.5.9 % 6 % 2 A e 6 h 2.l 8 : & 3 k 0 8 2 b * i s g ~ ..X.",
"L I | H.=.w 6 6 X N h.h.Z.#X$XZ M m n m p.:X,XZ N 2 > j i , p ~ ",
"/ /.+.J } 7 6 % < V g.V c.B.S B M M n M S C.N.N M b : j i : 3./.",
"$.' /.G X.- $ X b V C C N N M C C h.j.l.x.l.l.j.g.b & j p z q.~.",
"S.' $.E 7 % % X n C N M N N g.z.l.v.b.n.n.n.b.b.x.C & j a R U.I ",
"P Q 8 # X % %   1 n M S Z.%XV.v.v.b.n.n.M.A.A.m.n.j.- j a R L o.",
"3.6       + @ . O < b 0.0XtX-XC B B B k.=XsXsXV.V b : p p d XX-.",
"e.4.9 @ . + @ = , , , i 9.3.s i a a p p 1.f.f.i t a p p r d } ~.",
"J.$.a.<.6 + $ $ # # o o o = > r i s s s i > , r j j d i > y I.E.",
"} G.T.e.<.% $ t - # # O O # @ @ o o ; # o O O = = = o o : 5 O.` ",
"G.P.!.H.Q 6 @ 6 7 - # . @ 7 6 % o # # $ # . O - - + o # 6 d [ ~.",
"%.E.Y (.r.u @ @ - # .     # 9 7 - - - # @     . $ : $ : w k W U.",
") J ] D.I.j # @ @ + .       # 6 6 6 - @         . # $ 0 k 7.w.].",
"F.| ~.#.=.z O # + . . . . . @ # 6 6 $ .         . o $ 6 t q.@.U.",
"I.J.(.D.W u 0 6 . . + + % $ $ $ - - # . . . . @ # $ $ X #  .G P ",
"|.I.Y.H.&.l 3.9 . + + $ 7 8 7 7 6 - $ + O # @ # : 0 $ . # v I R ",
"` ) ~.K /./ &.7   + 6 h ,.k h u 9 6 6 6 - o + % q 2.,.6 # i P U ",
"J D U.E.E.`.~ - . $ k t.u.t.2.<.k l k l h $ + @ v q.t.2.h > E [ ",
"F.Q.X.P.U K.q.# X k 9.[. Xf.s.8.2.<.4.8.4.u + % v /.@.( 5.2.Q U ",
"~./.P.Y U U 3.$ 0 ! :.{ /.} G [.t.4.e.X.a.<.$ % ..J | T.@.^ }.R.",
"H.I.$.$.-.D.~ 9 v |.^.T.L.F I I q.8.|.H.;.u.w $  .Y.U.&.T.H.} Y ",
"G J.Y.W.W.T.~ Q ^.w.K.S.L.o.#.E.] Q.D.U.~.e.6.l F J.oX*.I F.F oX"
};
