/* XPM */
static char *_fb9cb087f1b42a3f2276e134695e0726qGODxqoL45G4qFU[] = {
/* columns rows colors chars-per-pixel */
"32 32 220 2 ",
"   c #5A2918",
".  c #552412",
"X  c #6B2E2C",
"o  c #6B2E22",
"O  c #683623",
"+  c #733129",
"@  c #773926",
"#  c #713237",
"$  c #234C0D",
"%  c #2D580D",
"&  c #375C17",
"*  c #285011",
"=  c #2E6B08",
"-  c #31640B",
";  c #3A6B0D",
":  c #39680C",
">  c #3B760C",
",  c #396313",
"<  c #3B6C15",
"1  c #3C6A1C",
"2  c #366714",
"3  c #3D7214",
"4  c #3C7619",
"5  c #2F6910",
"6  c #3C6B23",
"7  c #475616",
"8  c #477A0C",
"9  c #436C16",
"0  c #486B1C",
"q  c #437515",
"w  c #487315",
"e  c #457A14",
"r  c #4C7B15",
"t  c #44741A",
"y  c #4A751B",
"u  c #437B1B",
"i  c #4B7B1B",
"p  c #597C1F",
"a  c #506914",
"s  c #774328",
"d  c #66542A",
"f  c #457C21",
"g  c #4B7D23",
"h  c #4C732A",
"j  c #477525",
"k  c #527E24",
"l  c #577928",
"z  c #526A3B",
"x  c #547D32",
"c  c #586427",
"v  c #777B2C",
"b  c #657731",
"n  c #6C7A2F",
"m  c #863732",
"M  c #9C3A3A",
"N  c #943A39",
"B  c #A03D3C",
"V  c #84482D",
"C  c #84562E",
"Z  c #93572D",
"A  c #88583A",
"S  c #9B543B",
"D  c #A14A3D",
"F  c #886639",
"G  c #9B6331",
"H  c #887E3C",
"J  c #A56B36",
"K  c #A9753B",
"L  c #B9763A",
"P  c #CE394A",
"I  c #D23B4D",
"U  c #DE3D52",
"Y  c #E43F55",
"T  c #9B534F",
"R  c #A54142",
"E  c #AB4245",
"W  c #B64849",
"Q  c #A95D43",
"!  c #B15252",
"~  c #887942",
"^  c #94764E",
"/  c #BC6A43",
"(  c #A97641",
")  c #B97058",
"_  c #A06468",
"`  c #C2454B",
"'  c #DA4953",
"]  c #D75559",
"[  c #ED4359",
"{  c #E14955",
"}  c #F0445C",
"|  c #E0545B",
" . c #C37048",
".. c #DB5B67",
"X. c #ED5C6A",
"o. c #E35764",
"O. c #F75266",
"+. c #F25D6B",
"@. c #FB5D6E",
"#. c #FD5F70",
"$. c #F54E63",
"%. c #CF6D70",
"&. c #E6656B",
"*. c #F6646E",
"=. c #FF6373",
"-. c #FF6778",
";. c #FE687A",
":. c #EC777A",
">. c #458116",
",. c #4B821B",
"<. c #498318",
"1. c #548C15",
"2. c #53851B",
"3. c #5B8C1C",
"4. c #56891A",
"5. c #5B981C",
"6. c #52820D",
"7. c #638D1C",
"8. c #65961C",
"9. c #4D8322",
"0. c #4E8829",
"q. c #548324",
"w. c #5B8324",
"e. c #538923",
"r. c #598B23",
"t. c #55822C",
"y. c #5D8C2A",
"u. c #58882A",
"i. c #539124",
"p. c #5C9526",
"a. c #5C8832",
"s. c #5E9A3A",
"d. c #658A28",
"f. c #629624",
"g. c #629A24",
"h. c #62922B",
"j. c #699929",
"k. c #739B2A",
"l. c #688837",
"z. c #788C34",
"x. c #659837",
"c. c #749436",
"v. c #78832D",
"b. c #6BA42B",
"n. c #75A52D",
"m. c #6CA338",
"M. c #77A736",
"N. c #889C3A",
"B. c #83A737",
"V. c #859149",
"C. c #B98347",
"Z. c #BE8A50",
"A. c #8DBA49",
"S. c #88A945",
"D. c #CA8847",
"F. c #D4884A",
"G. c #DD974D",
"H. c #CC9752",
"J. c #E79C43",
"K. c #E79E47",
"L. c #D8A858",
"P. c #E9A146",
"I. c #EBA54B",
"U. c #EDA84E",
"Y. c #E5A14F",
"T. c #EEAD52",
"R. c #F0A956",
"E. c #EEB256",
"W. c #EDB258",
"Q. c #EFBB5D",
"!. c #F0B156",
"~. c #F1B55B",
"^. c #F1B95E",
"/. c #F89E73",
"(. c #E4BE6A",
"). c #F1BD62",
"_. c #F9B87D",
"`. c #8BC449",
"'. c #F8C951",
"]. c #EEC86E",
"[. c #F3C366",
"{. c #F5CA6C",
"}. c #F3C56A",
"|. c #F6D16F",
" X c #ECC872",
".X c #F5CD72",
"XX c #F7D573",
"oX c #F7D67B",
"OX c #67369A",
"+X c #6C3AAC",
"@X c #7C51B6",
"#X c #8B5B97",
"$X c #926292",
"%X c #DB7282",
"&X c #D7729D",
"*X c #FF798E",
"=X c #FF7087",
"-X c #FE7D93",
";X c #FF7B98",
":X c #F57093",
">X c #AB8290",
",X c #FE859B",
"<X c #F78598",
"1X c #FB9995",
"2X c #FDA79C",
"3X c #FBB792",
"4X c #FF8BA4",
"5X c #FF84A4",
"6X c #FF93AD",
"7X c #FE9AA3",
"8X c #FF9BBB",
"9X c #FF97B3",
"0X c #EFCC88",
"qX c #FCE68F",
"wX c #FFEE9B",
"eX c #FDEA94",
"rX c #FFA9C5",
"tX c #FFACCC",
"yX c #FAB7CE",
"uX c #FFBCDC",
/* pixels */
"i a.y.2.f.q., e : n.i p p u N.,X,X0 i 4.m.l.l g p.0 % `.t y.A.<.",
"5.l.B.M.1 c.d.h.1.r.n.h $ q *.-X*X&.e ; 7.j r r b.h r.l 6.r.0.u ",
"n.8 - a.i , f.% $ 9.7.2.y.n 4X,X,X,Xt.3.i t z.l e u y 8.0 j.q = ",
"< M.<.j 9.0.h.M.6 s.2.y 9 :.-Xo + ,X%.>.5.w i 6.e i <.3 8 9 3 m.",
"g x.b.i.g r 3.q.f g t i.w 4X.._ _ *.4Xj.2.q q <.j.f p.3.; e.,.y.",
"c.e r.k f.e 3 e 1 p.,.,.) <XX.+.+.X.<X^ d.f.r.q.% 3.k l.V.2.4 <.",
"S.j , ; u B.k e l.c.q.f -X%.! R R ! %X,Xw q.5.A.h 2.4.9 h x g 1.",
"< h.g r x u d.j.1.0 k.d M F.Q.D.H.W. .M z.x.; 2 d.y = r.u.< ,.> ",
"3.9.l.g x j.2.k ,.r w.v.Y.C.oXs V oXC.D.7 g.c.y q y.h.k t.t r.y ",
"1.3 j.g g 2.>.y i.2.2 = k.O  XO O  Xs 1.u y r - w.t u.>.a.q.1 i ",
"w 2.8.i % ,.- u 2.>.r.e z s (.O O (.C , 3 f.w 6 m.7.n.>.; 4.4.j ",
"5 1 r 1.q.t f.d.p.8 b.i.^ <XyXuXuXrX<X~ r u.4 M.c.> 9 2.& g.d.2 ",
"6 x.9.- 3.k j p 5.z H =.4X4X9XrXrX6X4X4X*.b k p.j , 6 f c.l , k.",
"g 3 x.& j.j.e.1 < ~ =.=.-.-X4X4X4X4X-X-.=.=.n ; > r.y.,.6 4 2 f.",
"] 8 y.i r 0 ,.: l =.=.] E B M M M M B E ] =.=.n.9.: l.f.w.9.4.| ",
"=.G l w.q.W C t Q W M B  .G.T.7X1XT.G./ M M ` V.6.T ) $ w j.W =.",
";X@.c 9 B.I P 2.W M G.R.3X2X7XT ! 2X3X0XT.F.M A a P I 4 g F @.;X",
"-.#.[ q.F P P ` D :.4X8XtX9X%.+ + %X8XtX8X4X&.C P P I v b [ @.-.",
"5X=.$.' [ P I @.,X4X4X9X8X:X# >X>XX <X8X6X4X4X*X+.P I { [ O.=.5X",
"=X=.O.[ U ' =.=.4X4X4X4X4X+ +X_.'.OX+ 6X4X4X4X4X=.=.I Y [ O.=.=X",
"=.=.=.} } =.=.=.,X4X4X*X+ X +X&X/.+X+ @ ,X4X4X-X=.=.=.[ } =.=.=.",
"W E B M *.=.=.=.-.;.-.@ @ X @XyX'.$XX V m -.-.=.=.=.=.o.M M R W ",
"W.U.P.J.=.=.=.o.R M N + J X +X:X:X#X+ ( + N N E X.=.=.=.J.I.T.W.",
").oX.XR.X.E / T.T.T.D m H.0XwXwXwXwX0XZ.m / T.T.Y.Q W +.T.XXoX).",
"(.Q.oX~.K.F.T.XXXXXXT.].XXqXeXqXqXeXqXXX].T.oXoXXXT. .K.).oXT.L.",
". T.oX{.T.P.T.XXXXXXT.XXL.L Z @ @ Z L G.XXE.oXoXoXT.P.T..XoXQ.. ",
"( E.oXoXT.J.T.XXXXXX!.G.!.Z         J ~.D.~.oXoXoXT.J.T.oXoXQ.K ",
"I.P.oX.XT.J.T.|.XXXX[.~.wXZ         J wXT.}.oXoX.XT.J.T..XoXP.I.",
"oXoXoXoX!.P.T.XXXXXX[.~.wXG         J wX!..XoXoXXXT.I.^.oXoXoXoX",
"oXoXoXoX^.I.T.XXXXXX[.~.wXG         K wX!..XoXoXXXT.U.[.oXoXoXXX",
".XoXoXoX^.U.T.|.XXXX}.~.wXG         K wX!..XoXoX.XT.U.[.oXoXoX}.",
").oXoXoX~.U.T.{.XXXX).!.wXJ         L wXT.}.oXoX{.T.U.).oXoXoXE."
};
