/* XPM */
static char *_22a73f137cd49fcdc43b2329deb77b4MczixegFCeOxaQRB[] = {
/* columns rows colors chars-per-pixel */
"32 32 228 2 ",
"   c #234C0D",
".  c #2A5B06",
"X  c #2B5B0D",
"o  c #28580D",
"O  c #345B0E",
"+  c #224412",
"@  c #2A5212",
"#  c #2E5D13",
"$  c #2F5018",
"%  c #225D11",
"&  c #345C15",
"*  c #345C1A",
"=  c #3C5C18",
"-  c #305418",
";  c #2C630B",
":  c #2F6D09",
">  c #336404",
",  c #33640C",
"<  c #3C660D",
"1  c #366D0C",
"2  c #3B6B0D",
"3  c #336B06",
"4  c #3C730D",
"5  c #3D7A0C",
"6  c #347105",
"7  c #2F6912",
"8  c #2B6317",
"9  c #346413",
"0  c #3A6413",
"q  c #346B12",
"w  c #3B6C15",
"e  c #376519",
"r  c #3A6319",
"t  c #3B6A1B",
"y  c #376A19",
"u  c #347116",
"i  c #3D7214",
"p  c #3B7914",
"a  c #3B741B",
"s  c #3D7C1B",
"d  c #3C5D23",
"f  c #3D6C23",
"g  c #3B6924",
"h  c #3E7E21",
"j  c #425B1C",
"k  c #446C0D",
"l  c #43730D",
"z  c #447B0D",
"x  c #49780B",
"c  c #436C15",
"v  c #4C6C15",
"b  c #41641B",
"n  c #436C1C",
"m  c #4B6C1B",
"M  c #437515",
"N  c #497316",
"B  c #447B14",
"V  c #4C7B15",
"C  c #44741B",
"Z  c #4B741A",
"A  c #447B1B",
"S  c #4B7B1C",
"D  c #517E17",
"F  c #57751D",
"G  c #537D1D",
"H  c #5B7B1F",
"J  c #55751A",
"K  c #4F5B2B",
"L  c #446727",
"P  c #426F22",
"I  c #4B6E22",
"U  c #486B28",
"Y  c #45662B",
"T  c #447322",
"R  c #4A7223",
"E  c #457C22",
"W  c #4B7C24",
"Q  c #46762C",
"!  c #4C752B",
"~  c #467C2A",
"^  c #4C7E2B",
"/  c #527524",
"(  c #597721",
")  c #527D24",
"_  c #5A7C24",
"`  c #537528",
"'  c #5A752E",
"]  c #557D2C",
"[  c #5B7B2B",
"{  c #546636",
"}  c #526C3F",
"|  c #4F783A",
" . c #4C7535",
".. c #547433",
"X. c #537C32",
"o. c #597D34",
"O. c #55793D",
"+. c #597D3B",
"@. c #647C2F",
"#. c #647C36",
"$. c #536141",
"%. c #587F41",
"&. c #5E7B4C",
"*. c #388119",
"=. c #3F8410",
"-. c #48880E",
";. c #4B820F",
":. c #52810D",
">. c #458116",
",. c #4A8215",
"<. c #4C8A14",
"1. c #46831D",
"2. c #4C831C",
"3. c #4D891A",
"4. c #45881C",
"5. c #538415",
"6. c #538C15",
"7. c #53841B",
"8. c #59841D",
"9. c #538C1D",
"0. c #5B8C1C",
"q. c #588915",
"w. c #57921C",
"e. c #5C941C",
"r. c #5C9C1C",
"t. c #599615",
"y. c #628D1D",
"u. c #648B17",
"i. c #64941C",
"p. c #65981D",
"a. c #629212",
"s. c #478321",
"d. c #4C8223",
"f. c #4B8A21",
"g. c #4D832C",
"h. c #4D8A2B",
"j. c #538423",
"k. c #5B8325",
"l. c #538A23",
"z. c #5A8B23",
"x. c #53832C",
"c. c #5C832B",
"v. c #558B29",
"b. c #5C8B2B",
"n. c #539224",
"m. c #5B9323",
"M. c #5D912B",
"N. c #5E9C29",
"B. c #599627",
"V. c #528332",
"C. c #5C8334",
"Z. c #598839",
"A. c #5A8936",
"S. c #5D9639",
"D. c #638B23",
"F. c #6B8D23",
"G. c #62852C",
"H. c #628C2C",
"J. c #6B8B2B",
"K. c #788F25",
"L. c #639424",
"P. c #699424",
"I. c #649C24",
"U. c #6D9D25",
"Y. c #63922C",
"T. c #6A952C",
"R. c #659B2C",
"E. c #6B9D2C",
"W. c #729D23",
"Q. c #729E2D",
"!. c #709329",
"~. c #608430",
"^. c #668A36",
"/. c #698B36",
"(. c #62843D",
"). c #69863C",
"_. c #6C8C3A",
"`. c #728F35",
"'. c #639232",
"]. c #6B9436",
"[. c #649E31",
"{. c #6E9B34",
"}. c #649339",
"|. c #65993A",
" X c #6A9E3D",
".X c #719433",
"XX c #749C31",
"oX c #7B9B31",
"OX c #74913A",
"+X c #799A3D",
"@X c #779639",
"#X c #6EA324",
"$X c #66A42A",
"%X c #6CA42E",
"&X c #6BAA2D",
"*X c #67A023",
"=X c #73A52D",
"-X c #77A82A",
";X c #77A429",
":X c #77B22C",
">X c #6FA336",
",X c #69A83B",
"<X c #72A232",
"1X c #7CA63D",
"2X c #7AA838",
"3X c #7CB439",
"4X c #6D8B44",
"5X c #738944",
"6X c #6B9645",
"7X c #77914E",
"8X c #7CAD46",
"9X c #76AC41",
"0X c #809832",
"qX c #80973D",
"wX c #84A33A",
"eX c #91AD37",
"rX c #89B037",
"tX c #85B638",
"yX c #97BC36",
"uX c #809744",
"iX c #86AE40",
"pX c #87A84B",
"aX c #8FBD4F",
"sX c #8BB642",
"dX c #93BA40",
"fX c #95BD51",
"gX c #8BC449",
"hX c #A0C44D",
/* pixels */
"S c.b.7.L.j.9 B < =XS H G A =X8Xu t S 8.>X/.( ^ N.m # gXC b.aX,.",
"r.^.wX<Xt .XD.Y.6.z.;X!   M L.e E d.B 2 y.R V V %X! l.[ ,.l.h.A ",
"-Xz , C.S 0 L.X + d.u.7.M._ ' Z c.:Xg.0.S C @X[ B A N p.n R.M : ",
"w 1X1.R d.h.Y.2Xf S.8.N c oX_ l 7 #Xm.1.e.N S 5.B S ,.i z c i >X",
"W [.%Xn.W V 0.j.E W C n.M ; 5 %XW z.P.R.7.M M 1.E.E N.w.2 l.2.H.",
".XB z.] L.B i B t N.1.2.W b.L 6X:...S.B D.Y.z.j.o 0.) /.uX7.a 3.",
"pXT 9 2 A wX_ B ).+Xj.E d.dXQ ..v v.X.1 N j.r.sX! 7.0.c ! X.E 6.",
"w Y.W V X.A G.T.6.n Q.b R.s.d.s.B P.j.2.&X|.4 q J.N 3 z.v.w 2.5 ",
"8.d.(.W o.P.7.) 2.V k.!.v 6 7.2., m ].g.; I.OXN M b.Y._ x.C z.Z ",
"q.i T.d.W 7.>.Z n.7.y : w.<Xt C.b.' N <.C N V , k.C x.>.b.j.t S ",
"M 7.i.S X 2., A 7.>.z.B } I.V f.I &X|.0 i L.M g ,Xi.=X>.2 9.9.T ",
"7 r V 6.j.C L.F.m.x #Xv.| m F rX1X& W.k.V v.a 1X.Xp c 7.= L.H.e ",
"f |.d.; 0.) T H r.{ G.U.A 1.V I.n ].4 > z.` ) m.Q 9 f E `.[ 0 U.",
"W i }.& U.T.l.t q E / P.2.B O L.i.W z.N c oX_ 1 5 z.b.7.f a 9 L.",
",.z M.S V C 2.< Z S B n ! b.[ k.7.V S m.M 7 z <Xd.< ^.I.k.d.9.w ",
"l B ' k.j.1.N C . R '.I.w.E [ ` @ ^ z.>.2.0.d 6X:...pX  N E.q T ",
"_.|.t k rXl C.7.=XA 0 B d.hXT u W b.E l i.$X .! v v.U s W ! eX] ",
"k.@.=Xl.) 2.M.s.1.T M.N ! A F E.p q L W n 2X,.s.B P.m.w.] o.,.L.",
"t.G 1.l.I.q.z.e.i q.E.+.X.U.5.j.H. .%.b.0.c.y.2., F y l.XXu M.M.",
"S G k.,.j.i w 8._ h ! R C.;.b.O.W.XX4XH.2 * C x.k.[ j t XXp.d.M ",
"7.x.D.l.8 L (.V ).+X2.*XqX|.H.^.f.M n .X; fX%X3.I &X$XV R , S L.",
") m.t XX0X6XX.#Xe.m %XM U.7.q.z.e n v.,.5.v.s iX1X@ G K.I.K b l.",
"n ; M 2.0.) 5Xb 9 7.i k.r W F.6.e.S E 8.M.m.d d.C H.d.= =.%.o.3X",
"2.x P.E W 9 ~ X V.W V 7.g.&.V k 5.l.e S . k.O.b.i.'.M.l.0 x.S j.",
"j.w.{.j.o 2.e l.A  X; ; D 0.A S I.2X4X[.H.W C.) :X!.R.V.P 7.q *.",
"4Xj.z.6.P.3.V A W yX/.b.j.t.N b.z.5.-X,.7.4.c.` * /.R ,.v.] i X ",
"N n m.2 {.M -.w C 1 0.#.#.& B S 5./ W L.z > S p q A ,XP Y.7X4 M ",
", $ l.m.n. X0 a m.` A t a # Z.2.9 m.a 7.6.Z F G.E.R D Q.X U.S 1.",
"3.o.U d.c p.k.B /. .Y.m.] j.f.m.& 8XI 9 a.e.b.- w T.S 1 ; 1.A 2 ",
"T.}.h.C 4 C O w N ) S d.'.N O F.M.Z I.b u.8.j.~ 8.; V b.! X pXc.",
"0.7.g.] ' S I 2.W OX@.'.d.- t 0 < rXE.7.2.p.t v.j.z.z.Y b.z.R a ",
"r w.z.~.Z.b.7., +X$.L.>.2.T A M.p L.S 9.T.N 9Xh.o w.tX{ 0 3.% tX"
};
