/* XPM */
static char *result[] = {
/* columns rows colors chars-per-pixel */
"32 32 250 2 ",
"   c #110403",
".  c #3C1204",
"X  c #35230F",
"o  c #1F1C23",
"O  c #1A3D3D",
"+  c #36202A",
"@  c #560D03",
"#  c #5B1318",
"$  c #6E1402",
"%  c #7C1902",
"&  c #6C1A18",
"*  c #4E2C1B",
"=  c #76270A",
"-  c #6E340F",
";  c #701D29",
":  c #573827",
">  c #482F2E",
",  c #683B25",
"<  c #2A5B0D",
"1  c #2A5714",
"2  c #375B19",
"3  c #2A5110",
"4  c #2E660B",
"5  c #38670B",
"6  c #3C750D",
"7  c #3A6413",
"8  c #3C6C15",
"9  c #3B6C1C",
"0  c #356615",
"q  c #3B7317",
"w  c #2F6910",
"e  c #3B5C21",
"r  c #3A6825",
"t  c #584C12",
"y  c #675914",
"u  c #47790E",
"i  c #456B18",
"p  c #5A6A18",
"a  c #457A14",
"s  c #43731A",
"d  c #447B1B",
"f  c #4B7B1C",
"g  c #487616",
"h  c #54791C",
"j  c #406606",
"k  c #666919",
"l  c #697518",
"z  c #4E5930",
"x  c #755030",
"c  c #466C26",
"v  c #447323",
"b  c #4B7C24",
"n  c #4A7727",
"m  c #547A28",
"M  c #537C32",
"N  c #577C36",
"B  c #4F6F35",
"V  c #6B762F",
"C  c #172D55",
"Z  c #0A1776",
"A  c #060F6D",
"S  c #251F5F",
"D  c #741A75",
"F  c #61215D",
"G  c #29444F",
"H  c #405C52",
"J  c #6C544B",
"K  c #546F42",
"L  c #657759",
"P  c #504D70",
"I  c #736F64",
"U  c #777471",
"Y  c #881902",
"T  c #9A1503",
"R  c #96170D",
"E  c #AA1503",
"W  c #B31902",
"Q  c #8B2406",
"!  c #96270E",
"~  c #A22A11",
"^  c #B7200A",
"/  c #BC1D38",
"(  c #C51701",
")  c #D61B05",
"_  c #F31E00",
"`  c #D42809",
"'  c #C73519",
"]  c #DA3714",
"[  c #D22D0A",
"{  c #E72B08",
"}  c #FD2300",
"|  c #F82705",
" . c #EE3417",
".. c #D51E22",
"X. c #D22F2B",
"o. c #E93024",
"O. c #8B410D",
"+. c #B94A0B",
"@. c #8A6E19",
"#. c #AC611D",
"$. c #955738",
"%. c #895333",
"&. c #95623C",
"*. c #997833",
"=. c #D14916",
"-. c #D74D28",
";. c #ED502A",
":. c #92225C",
">. c #C42342",
",. c #9B6945",
"<. c #8D704D",
"1. c #A8774A",
"2. c #B27F4F",
"3. c #897278",
"4. c #A66264",
"5. c #B45E50",
"6. c #ED5B43",
"7. c #F16147",
"8. c #F47054",
"9. c #F07D69",
"0. c #CF7261",
"q. c #3C8315",
"w. c #4B821C",
"e. c #498418",
"r. c #53831C",
"t. c #568A19",
"y. c #5A951B",
"u. c #64961D",
"i. c #4D8223",
"p. c #4D882B",
"a. c #538423",
"s. c #538B24",
"d. c #5A8B23",
"f. c #54852B",
"g. c #5D8B2B",
"h. c #5B842A",
"j. c #5A9525",
"k. c #598436",
"l. c #628B28",
"z. c #64912C",
"x. c #679927",
"c. c #749B2A",
"v. c #668835",
"b. c #689735",
"n. c #749636",
"m. c #758A2F",
"M. c #6BA42E",
"N. c #6CA635",
"B. c #76A438",
"V. c #78AD2F",
"C. c #678649",
"Z. c #688858",
"A. c #6D984C",
"S. c #75AB49",
"D. c #7A827A",
"F. c #86AF3B",
"G. c #809832",
"H. c #CE9F2B",
"J. c #8D9348",
"K. c #86A947",
"L. c #90BA4F",
"P. c #828A7D",
"I. c #B4936D",
"U. c #8DB46E",
"Y. c #BAA76E",
"T. c #B3814F",
"R. c #C79159",
"E. c #CB9A63",
"W. c #F38F6E",
"Q. c #CEA970",
"!. c #E7BA77",
"~. c #E5B06F",
"^. c #F8844B",
"/. c #8BC449",
"(. c #F5C57A",
"). c #C8C274",
"_. c #E7CE1B",
"`. c #010A8D",
"'. c #010986",
"]. c #010C9B",
"[. c #030B95",
"{. c #0B1690",
"}. c #0E279B",
"|. c #010CA4",
" X c #010CAB",
".X c #010DB4",
"XX c #020DB9",
"oX c #1617B5",
"OX c #1013B2",
"+X c #2A2DB4",
"@X c #2D21A4",
"#X c #4B18AF",
"$X c #662795",
"%X c #304B8A",
"&X c #7B7A8B",
"*X c #4964A0",
"=X c #657BAC",
"-X c #010FCE",
";X c #121AC8",
":X c #1919D8",
">X c #0114D2",
",X c #2714C9",
"<X c #0112E5",
"1X c #0111E8",
"2X c #0112F1",
"3X c #0014FE",
"4X c #1A25D4",
"5X c #8C888B",
"6X c #9B989A",
"7X c #8E938C",
"8X c #A59F9D",
"9X c #A69089",
"0X c #94B18B",
"qX c #A9A6A6",
"wX c #B4AEB1",
"eX c #BBB6B7",
"rX c #AEACB1",
"tX c #98A6A5",
"yX c #D2B58C",
"uX c #EEA794",
"iX c #CABCB2",
"pX c #F3B6A4",
"aX c #F99882",
"sX c #B7C6B4",
"dX c #A3C796",
"fX c #D5D088",
"gX c #FDD987",
"hX c #EDCD8E",
"jX c #FDEA99",
"kX c #F8C1AF",
"lX c #F6C7B6",
"zX c #E9D5B9",
"xX c #FAEAA8",
"cX c #FFF2A5",
"vX c #FFF7BC",
"bX c #D9C5A5",
"nX c #C2BEC0",
"mX c #C8C5C7",
"MX c #C8DCC6",
"NX c #D2CED0",
"BX c #D9D5D7",
"VX c #D1CFCD",
"CX c #EBDAD0",
"ZX c #D9E5D9",
"AX c #F3EFD6",
"SX c #C8D6EC",
"DX c #E3DFE2",
"FX c #E7E4E5",
"GX c #F4F3F1",
"HX c #D4E2EE",
/* pixels */
"f h.l.t.j.a.0 a 5 M.w.m h k @.*.y y l l B.b.m b x.i < /.s l.L.e.",
"y.v.G.B.i n.l.g.t.d.c.y Q ` ) ;.;.;.=.{ +.l g h M.n d.m e.t.p.d ",
"V.u 5 k.f 7 x.< X b Q W ) ] W.pXkXkXpXW. .{ #.V a q f u.s x.a 4 ",
"i B.e.n i.f.z.c.t Q E ( ` uXpX6.7.7.8.CXaX| | +.p e.e.6 a i 8 N.",
"d b.M.s.b g l = T T E ( X.pX9.aXlXkX6.uXlX .} } =.k u.t.5 s.w.g.",
"n.e.d.b j.a t Y Y T E ( ` 5.6.8.9.W.6.W.8.| } | | { k v.J.w.q e.",
"K.s 0 5 d G.y % Y R R ~ ~ R ! =.-.-.` )  .| } } } | @.i n f.i.e.",
"8 z.n h M a m = Y %.$.,.<.I.8XI.~.Q.I.I.R.W.^.;.| ^ 5 d.g.q w.6 ",
"t.r.v.b M x.r.- - %.,.1.yXSX*XI yX&X=XZXxXjXjXhX-.@.j.m f.s d.f ",
"t.s x.b b r.k x , ,.1.I.zXSX%XI bXP %XHXAXcXjX(.*.z.f.e.g.a.9 f ",
"q.e.c.A.0 n x <.iXCXI.R.yXiX5XQ.xX5XtXFXvXcXcXI.Y.fXL.e.8 t.w.v ",
"w C.MXFXdXn x 3.mXFXJ %.,.T.E.(.gXjXjXcXxXfXjXyX!.).s.e.2 x.z.0 ",
"r S.sXSXNX0XI U eXwX+   x 1.R.~.(.gXgXyXJ X I.hXQ.V v b m.m 7 c.",
"n k.7XnXmXDXrX6XmXwX+   * &.T.E.~.!.hXx   > Y.J.r.d.g.r.r q 0 u.",
"k.0XmXNXFXGXDXBXCXBXJ : * x &.1.2.2.%.: t <.v.M.i.5 v.x.h.p.t.q ",
"Z.7XrXmXBXFXGXGXGXGX4.J F J x %.%.$.%.$.-.] O.*.v.Z.U.r f x.w v ",
"C.D.7X6XrXnXNXDXFXlXo...D ;X+XF ' ] :.D ` _ | ' 9XNXZXMXsX0XL.k.",
"h.L U &X5X6XqXeXmXpX .} X.,X3X4X/ } { $XD R ^ 5.eXnXmXNXFXFXZXU.",
"y.M U U &X7XqXsXVX0.) _ o.#X3X1XD } } >.$Xz V 7X7X7XtXnXNXBXMXS.",
"f h v.L D.P.7X&X3.R ) ) >.,X4X+X$X:.D #XP M 9 k.K L 5X6XeXsXU.q ",
"r.f.l.s.r z H '.A S F F ,X;X<._.Y.4X2X2X%X/.N.e.c N.b.v.Z.n a.x.",
"b j.q n.G.A.C |.|.[.`.|.-XOX<.H.3.:X2X1X}.p.q F.B.3 b m.j.z 8 s.",
"9 4 g w.t.c Z |.XXXX|.[.|..XOX@X:X<X<X<X}.g.e p.s z.i.0 e.K N V.",
"w.u x.n n 2 A [.|..X.X X].]. X.X-X<X<X>XO h.K g.u.v.j.s.8 f.f f.",
"a.y.n.a.< v A '.`.`.`.].|.].].XX-X<X1X}.M b k.m V.c.x.k.v m 8 q.",
"C.a.d.t.x.e.C A '.`.`.Z C '.OX-X<X1X1X{.c e.l.M 7 v.v e.s.m q < ",
"g i l.5 b.s u O C C G K B A [.[.{.oX;X{.9 4 s q 5 f N.v l.A.6 s ",
"5 1 s.j.j.b.5 6 g.n d 9 r o + # & ; ; > h g p l.x.n r.c.< M.g d ",
"i.N c i.u u.h.a v.B b.d.b X @ $ Y Y Y - t.u.d.1 i z.f 5 5 e.a 8 ",
"z.b.p.s 6 s < 8 g m h i.m . @ $ % Y Q = l t.r.p.r.w a l.n < K.h.",
"y.r.p.M m f h f f n.V z.g @ @ $ % Y Y - h u.9 g.a.d.t.c g.j.n 9 ",
"2 j.h.v.k.g.h 4 A.B j.a f 2 * t t y y g z.a S.p.< y./.z 8 e.< F."
};
