/* XPM */
static char *result[] = {
/* columns rows colors chars-per-pixel */
"32 32 242 2 ",
"   c #392623",
".  c #6D1610",
"X  c #562D16",
"o  c #6A3415",
"O  c #753918",
"+  c #722F1A",
"@  c #533333",
"#  c #743B28",
"$  c #653C31",
"%  c #4E0C05",
"&  c #2B5B0E",
"*  c #2B5813",
"=  c #365A16",
"-  c #2B520F",
";  c #2E660A",
":  c #32630B",
">  c #3A6A0D",
",  c #386A0B",
"<  c #3C750D",
"1  c #3A6412",
"2  c #3B6D15",
"3  c #3B6A1B",
"4  c #366517",
"5  c #3D7213",
"6  c #3A7518",
"7  c #2E6714",
"8  c #3A5B23",
"9  c #3B6E25",
"0  c #3B6A39",
"q  c #525A1B",
"w  c #64471A",
"e  c #6F5717",
"r  c #46780D",
"t  c #446A19",
"y  c #437414",
"u  c #497416",
"i  c #457A14",
"p  c #4C7B15",
"a  c #44731B",
"s  c #447C1B",
"d  c #4B7C1C",
"f  c #4A751B",
"g  c #557C1E",
"h  c #6C771E",
"j  c #545929",
"k  c #784834",
"l  c #6C4330",
"z  c #486C25",
"x  c #447523",
"c  c #467B22",
"v  c #4A7C24",
"b  c #4C742B",
"n  c #497526",
"m  c #537D25",
"M  c #557D2C",
"N  c #5B7D2B",
"B  c #587629",
"V  c #537C33",
"C  c #597D34",
"Z  c #506C34",
"A  c #657D2A",
"S  c #667B37",
"D  c #737235",
"F  c #0B1E5E",
"G  c #2E2954",
"H  c #051E78",
"J  c #061C66",
"K  c #0D277E",
"L  c #162B74",
"P  c #12296C",
"I  c #35376D",
"U  c #1C3A48",
"Y  c #5C3162",
"T  c #1E4242",
"R  c #30514B",
"E  c #2F5277",
"W  c #577748",
"Q  c #54724D",
"!  c #6D6144",
"~  c #506A77",
"^  c #716E6C",
"/  c #614A59",
"(  c #890101",
")  c #960301",
"_  c #931610",
"`  c #B70001",
"'  c #B7110C",
"]  c #BD1E1E",
"[  c #803E1B",
"{  c #B32B18",
"}  c #90182D",
"|  c #AD1E3F",
" . c #843F2A",
".. c #AF3325",
"X. c #D20101",
"o. c #D50604",
"O. c #CA0E0C",
"+. c #E60402",
"@. c #FC0600",
"#. c #FD0B02",
"$. c #F20B04",
"%. c #E91417",
"&. c #FC2B1F",
"*. c #E73933",
"=. c #ED3427",
"-. c #D12B27",
";. c #974E35",
":. c #9D5A38",
">. c #894A29",
",. c #AD492D",
"<. c #8E783B",
"1. c #B2663E",
"2. c #D44018",
"3. c #D04439",
"4. c #F94238",
"5. c #912B64",
"6. c #971C50",
"7. c #88554B",
"8. c #A65F46",
"9. c #9B7D48",
"0. c #996851",
"q. c #AA6448",
"w. c #B66846",
"e. c #B27354",
"r. c #807C7F",
"t. c #E25E54",
"y. c #C97856",
"u. c #C9775A",
"i. c #CD7D62",
"p. c #EB7775",
"a. c #3C8315",
"s. c #458116",
"d. c #4A8215",
"f. c #4C831C",
"g. c #4A861C",
"h. c #53841B",
"j. c #5C8C1B",
"k. c #558919",
"l. c #59951B",
"z. c #48880E",
"x. c #638B1D",
"c. c #65971C",
"v. c #4C8322",
"b. c #4D882A",
"n. c #548423",
"m. c #538B22",
"M. c #5A8B23",
"N. c #53842C",
"B. c #5B842B",
"V. c #5C8C2A",
"C. c #5A8727",
"Z. c #5C9323",
"A. c #5C922B",
"S. c #579625",
"D. c #5A8836",
"F. c #5E9A3A",
"G. c #648A28",
"H. c #629423",
"J. c #63922C",
"K. c #6C952B",
"L. c #679B27",
"P. c #678938",
"I. c #798E39",
"U. c #669736",
"Y. c #769836",
"T. c #779129",
"R. c #6BA52C",
"E. c #73A52D",
"W. c #7BA72D",
"Q. c #6FA336",
"!. c #78A638",
"~. c #7CB439",
"^. c #5F8044",
"/. c #678548",
"(. c #768D54",
"). c #7AAC44",
"_. c #7E8474",
"`. c #96833E",
"'. c #88B83A",
"]. c #8CAC38",
"[. c #889248",
"{. c #AD9454",
"}. c #86A947",
"|. c #92BD51",
" X c #AAA556",
".X c #849176",
"XX c #94B16A",
"oX c #AEB16B",
"OX c #D0875C",
"+X c #E5815F",
"@X c #D88661",
"#X c #D3946B",
"$X c #E59465",
"%X c #ED936F",
"&X c #ECA279",
"*X c #8BC449",
"=X c #061E87",
"-X c #112E8D",
";X c #0D2B97",
":X c #0E319A",
">X c #122F93",
",X c #1238AA",
"<X c #123BB3",
"1X c #153EBA",
"2X c #2C3FB2",
"3X c #313298",
"4X c #4F3EA4",
"5X c #1540BF",
"6X c #365CBA",
"7X c #2842B2",
"8X c #3D6AB7",
"9X c #335A90",
"0X c #476B8D",
"qX c #6D798B",
"wX c #5465AF",
"eX c #1946CD",
"rX c #1643C9",
"tX c #1A49D5",
"yX c #2E55CF",
"uX c #1F4EE1",
"iX c #2452E5",
"pX c #887F86",
"aX c #8D8C8E",
"sX c #B0BF9B",
"dX c #9699A6",
"fX c #B7B5B8",
"gX c #AEADAF",
"hX c #9DA094",
"jX c #EB8D8D",
"kX c #EFB28D",
"lX c #F0B7B0",
"zX c #B2C5A8",
"xX c #F6C895",
"cX c #CADBBD",
"vX c #F9C3A0",
"bX c #CBD1CF",
"nX c #D4D9E7",
"mX c #DFE5F7",
"MX c #E2E1E4",
"NX c #ECEFF6",
"BX c #F5F9FD",
"VX c #EEF4EE",
/* pixels */
"d.|.G.a *X& t L.V m P.Y.k.p 2 2 ).E.s m g d E.> u : n.H.g.C.N d ",
"s b.M.d.M k.b R.p p n T.e h B.s 4 H.y - n E.M.k.H.G.Y.3 !.].P.l.",
"; 5 L.t c.f s i B.I.e.p.*.#.&.q.B B m M.k.x.v.- - L.1 d D.: r W.",
"Q.6 5 i 5 s.d i h.e.jXjXp.#.$.$.4.<.Y.t a g F.9 !.J.b.v.n f.!.5 ",
"G.f.v., l.S.d L.v t.lXjX*.$.+.o.o.*.j p l.f v c n.j.u v m.R.U.v ",
"g.6 h.[.P.v x.O ..{ ..-.%.%.+.X.X.o.3.B s.v.Z.3 u y i A.m M.i Y.",
"k.c V b t k.A _ _ . ;.;.. . ] O.` ` ' 1.S n.Y.P.i n.].6 , 4 a }.",
"< g.2 C.j., u G.w 0.#X@X0.! ;.,._ ) ) ' 3.Y.z k.K.G.s V p f J.5 ",
"f S.a M m J.A.y N gXkXvXdXqX&XOXO % . ' ..G.p d.v h.L.N v.P.v.n.",
"f 3 n.V.s.N.f oXxXkX&XlXwXqXkX$X+ X ;.+X[.2 h.Z.d i h.v v K.< k.",
"c g.k.2 s.E.T.xXxX&Xe.0.^ / &XjX .# w.p.{.G.s.d.f : g.& d c.h.y ",
"3 G.L.= M.a a.{.OXe.l   X $ i.&Xi.q.u.%X[.E.r k.T.Z.a n.k.p 3 : ",
"L.1 B.XXbXhXW /.! l X l q.@Xp.u.u.3.*.&.2.,.8.XXXXV b.l.; v.U.9 ",
"H.4 (.MXfXfXfX(.k.#X$X$X$XOXe.;.%.@.@.$.@.&.lXNXBXVXcXXX1 P.6 v.",
"5 m.bXbXaX~ pX^ !.h.{.OXq./ Y O.@.+.o.X.X.p.NXBXBXBXNXBXzXV.r z.",
"x 4 sXhX^ ^ aXpXk o { _ + 2X5.@.+.` ( e K.[.MXBXBXNXmXnXbXP.s y ",
"M ].V /.^ qXdX7.. ` X.| 5.yX| @.+.o.' Q s.2 sXnXMXnXgXdX_.9 U.P.",
"H.d C N.l.P.I.q o _ ,.6X X X4X5.6.Y 3X6Xf A.(.gXfXfXaX_.F.E.A B.",
"J.A.2 K.l.2 B : p x.S yXqX~ rXtX5X1X,XyX^.U.x..XhXhXP.K.m.f.d l.",
"y f.c.Y.3 t N G.N t 8 6XeXeXeXrX1X<X,X1X~ M 0 I @ ! y h.i C.p g ",
"L.s 1 z p R.R.z g.R.|.9XeXeXrXrX<X,X:X,X6XE >X=XG $ D 4 m.H.N.h.",
"m.t j L.T.d - !.'.6 D.8XiXuXtXrX5X<X:X-X2X;X=XH =XY >.`.Y.3 S.m ",
"~.C D.a.= v.J.t n.9 8XiXuXtXrX5X,X>XK L K H H H P L w >.D y ; z ",
"n.d b.4 m.`.[.T.B.0XiXiXeX<X,X;X-XP P F J J J J F G O o k K.r s.",
"6 7 h.z (.y.,.;./ tXiXtX1X>XP R 0 x b R U T Q 9 M.t w X N Q.l.n.",
": 6 M C.<.1.8.>./ 7XtXeX,X>XZ M.B.y l.n.P.U.'.v a f d.K.k.M.M./.",
"y < (.J.A :.O O + I 5X<X;XE m k.f s 4 S S j., a 2 z.y U.> M.t u ",
"s s L.: L.h >.o o $ :X;XL 0 Z.= v.D.= 6 6 s M Z.a 1 U.S.Z.n.= : ",
"2 s s ; , d K.q o o @ K R n ).= Z.h.n.N.S.G.Z P.y G.c.t v.z V m.",
"B.}.& b V.p : M.C w X j t L.u V.K.& u J.v.p M u 2 & i < c b.F.J.",
"6 n M.V.z k.M.n.V.a G.v.h.L.'.> 1 3 * v J.S I.v p z v C M b.g j.",
"'.* d.1 Z |.l.& b.!.u K.k.d H.6 A.d x h.s H.Z Y.: h.V.C D.C.Z.4 "
};
