/* XPM */
static char *result[] = {
/* columns rows colors chars-per-pixel */
"32 32 243 2 ",
"   c #173902",
".  c #3D340B",
"X  c #2E3705",
"o  c #352134",
"O  c #570603",
"+  c #561A09",
"@  c #670602",
"#  c #780603",
"$  c #681B0D",
"%  c #731D0E",
"&  c #741E11",
"*  c #492007",
"=  c #582619",
"-  c #7A381B",
";  c #6F2713",
":  c #522225",
">  c #673A31",
",  c #3C440D",
"<  c #2C5B0D",
"1  c #2A550B",
"2  c #2A5813",
"3  c #2C5213",
"4  c #2E660A",
"5  c #3B6B0D",
"6  c #37670C",
"7  c #3C760E",
"8  c #2F6610",
"9  c #396313",
"0  c #3C6B1C",
"q  c #376815",
"w  c #3D7213",
"e  c #397418",
"r  c #315536",
"t  c #396923",
"y  c #3B6C34",
"u  c #195108",
"i  c #5B4E1B",
"p  c #485714",
"a  c #585617",
"s  c #434C0D",
"d  c #795618",
"f  c #704D12",
"g  c #46780E",
"h  c #436D14",
"j  c #466C1A",
"k  c #586718",
"l  c #457A14",
"z  c #4C7A15",
"x  c #43731A",
"c  c #447B1B",
"v  c #4B7B1B",
"b  c #467416",
"n  c #557D1D",
"m  c #446A0C",
"M  c #7D522D",
"N  c #6F4D30",
"B  c #446C27",
"V  c #4A7324",
"C  c #4B7C24",
"Z  c #4C752B",
"A  c #477925",
"S  c #537D24",
"D  c #557C2C",
"F  c #587927",
"G  c #547D33",
"H  c #587C35",
"J  c #55672B",
"K  c #686826",
"L  c #606C31",
"P  c #79623C",
"I  c #6D7536",
"U  c #6F7831",
"Y  c #55452E",
"T  c #192F5E",
"R  c #212A5B",
"E  c #0C1A78",
"W  c #111F71",
"Q  c #3D1063",
"!  c #152971",
"~  c #2A2367",
"^  c #3A0C58",
"/  c #52154C",
"(  c #691D52",
")  c #713247",
"_  c #511871",
"`  c #682F73",
"'  c #32555F",
"]  c #7C6042",
"[  c #64644B",
"{  c #870806",
"}  c #980403",
"|  c #8D130B",
" . c #A70504",
".. c #B80202",
"X. c #AB170F",
"o. c #8B230C",
"O. c #8A2613",
"+. c #9B2B17",
"@. c #962916",
"#. c #943610",
"$. c #AA3014",
"%. c #AD3A2E",
"&. c #9B1A2E",
"*. c #C50304",
"=. c #CB0202",
"-. c #D40303",
";. c #DC0303",
":. c #D70903",
">. c #C61B0D",
",. c #CE1212",
"<. c #E30203",
"1. c #EA0203",
"2. c #E80B07",
"3. c #F30303",
"4. c #FC0202",
"5. c #F10904",
"6. c #CA2917",
"7. c #CF3114",
"8. c #E23724",
"9. c #904E10",
"0. c #856319",
"q. c #8F4F34",
"w. c #A1533B",
"e. c #8E6A33",
"r. c #AF4714",
"t. c #980540",
"y. c #A8115A",
"u. c #B80545",
"i. c #865B50",
"p. c #A4594B",
"a. c #916D45",
"s. c #8E6745",
"d. c #B77D7B",
"f. c #9D715A",
"g. c #C77150",
"h. c #388119",
"j. c #4A8215",
"k. c #4B821B",
"l. c #498519",
"z. c #53841C",
"x. c #5C8C1C",
"c. c #548918",
"v. c #5A971A",
"b. c #48880E",
"n. c #648B1C",
"m. c #66971D",
"M. c #4D8222",
"N. c #4D872B",
"B. c #548324",
"V. c #548A24",
"C. c #598B24",
"Z. c #5D8B2B",
"A. c #588529",
"S. c #5B9526",
"D. c #578634",
"F. c #658728",
"G. c #639423",
"H. c #63922C",
"J. c #64992C",
"K. c #689927",
"L. c #74992A",
"P. c #678836",
"I. c #639139",
"U. c #689A35",
"Y. c #749333",
"T. c #728F35",
"R. c #6BA42E",
"E. c #73A52D",
"W. c #7BA72D",
"Q. c #6EA537",
"!. c #76A835",
"~. c #7CB439",
"^. c #678C49",
"/. c #668858",
"(. c #729451",
"). c #7FAA44",
"_. c #779061",
"`. c #84A33A",
"'. c #85B838",
"]. c #91AD37",
"[. c #879546",
"{. c #98935E",
"}. c #86A94A",
"|. c #8FBD4F",
" X c #85A175",
".X c #DDB178",
"XX c #EA9D71",
"oX c #9EC474",
"OX c #8BC449",
"+X c #0B1482",
"@X c #040798",
"#X c #1A309E",
"$X c #0302AC",
"%X c #0305A8",
"&X c #0201B5",
"*X c #0101BB",
"=X c #0B17B9",
"-X c #3710BF",
";X c #360493",
":X c #4A1091",
">X c #6006A4",
",X c #4D6586",
"<X c #4F609A",
"1X c #4442BF",
"2X c #0201C4",
"3X c #0301CB",
"4X c #0B0BCD",
"5X c #0915C8",
"6X c #0201D5",
"7X c #0403DB",
"8X c #190FC5",
"9X c #2317C7",
"0X c #2603D8",
"qX c #1A25CE",
"wX c #0101E3",
"eX c #0100EC",
"rX c #050AE8",
"tX c #0201F4",
"yX c #0201FB",
"uX c #0902F6",
"iX c #2F31CB",
"pX c #7C8491",
"aX c #979797",
"sX c #888D87",
"dX c #BF9890",
"fX c #97A89B",
"gX c #89A288",
"hX c #A1A69D",
"jX c #A9B4AA",
"kX c #B5B6B6",
"lX c #ACAEAA",
"zX c #DDA19E",
"xX c #CBB7B0",
"cX c #AECA95",
"vX c #B9C7B1",
"bX c #C8C3B8",
"nX c #C4D8B1",
"mX c #98A3C3",
"MX c #CCCAC7",
"NX c #D1D3D3",
"BX c #C9CFD0",
"VX c #DDE2DB",
"CX c #ECECEA",
/* pixels */
"v A.F.z.G.B.9 l 6 E.v n n c !.).e q C z.Q.P.F N.G.j < OXx Z.|.j.",
"m.P.`.!.0 Y.F.Z.c.V.E.Z . 9.r.#.9.d k 5 n.Z z z R.Z c.D j.C.N.c ",
"W.l 4 D.v 9 G.< 3 M.n.d >.5.4.4.5.5.6.0.n b Y.F l c c m.j J.g 4 ",
"w !.v V M.N.J.!.t U #.*.<.3.4.4.4.4.4.2.9.z v j.l v j.w g 0 w Q.",
"A R.R.V.C z x.B.a | ..-.1.4.4.4.4.4.4.4.5.$.k j.K.v S.x.5 N.k.H.",
"U.l.V.D G.l x l ; }  .=.;.3.4.4.4.4.4.4.4.3.7.K 1 v.B.P.[.z.e j.",
"}.x 9 6 l }.z.l K { } ..*.;.1.3.4.4.4.4.4.4.3.7.J z.c.h Z G C c.",
"m H.C z Z e U K.j.% { } ....-.<.3.4.4.4.4.4.4.2.0.x 6 C.V.e l.7 ",
"x.M.P.A H m.z.S F M +.X.....=.-.<.1.1.4.4.4.4.>.k H.I.z.D.e C.v ",
"c.w K.C C V.j.z I a.f.p.|  .*.-.;.<.1.3.4.4.8.e.P.x A.7 A.B.0 v ",
"b z.m.v < l.6 v L s.e.a.+ O { } } }  ...*.>.XX.X{.m.E.l.e c.z.A ",
"8 0 z c.B.x G.n.Z.P ] e.= O @ { # @ # # # | g..X{.7 x z.9 G.F.q ",
"t U.B.4 x.S j F v.P P P N = O $ - q.& @ O @ - [.H 9 t C T.F 9 L.",
"C 7 I.2 K.K.B.0 q H i.e.] ] ) w.w.i.] > = i k 5 7 C.Z.z.t 0 q G.",
"l.g S.v z x k.6 f $.6.%.` =X-Xy.y.-X0X:Xq.#.d L.B.5 P.K.A.M.c.e ",
"g c F A.B.k.k $.:.1.4.,.>XtXuX0X0XuXuX>X,.:.2.7.9.L }.u b J.8 A ",
"I.I.0 m ~.m o.<.3.4.<.t.8XwXtXtXuXuXyX0Xy.*.;.3.3.$.J c C D ].D ",
"A.U E.V.n K } =.;.X.&.;X3XwXeXyXuXuXuXuX>X&. .=.5.<.e.J.H D v G.",
"v.n l.V.oXbX%.| %.{.~ &X6X7XeXtXyXyXuXyXuX:XM @...,.zXnX}.e S.S.",
"v n V.U.MXVXxXdXxXjXE $X6XeXtXyXyXyXyXyXyX=X[ f.p.d.MXVXcXm.M.b ",
"z.N.H. XhXlXkXMXNXjXE &X7XtXyXyXyXyXyXyXyXqX/.sXaXfXkXNXVX(.z.K.",
"S S.^.hXlXkXMXCXCXmX@X&X6XeXyXyXyXyXyXyXyXrX<XsXaXlXkXNXVXnXj V.",
"j 8 ^.gXfXkXbXBXNX1X&X%X2X6XwXtXuXtXyXtXtXrXiXpXsXaXjXvXvXcXH ~.",
"k.b H.D.^./._./.<X%X3X3X2X&X*X2X5X2X2X3X7XwX7X,X/._.(.^.A D.C M.",
"B.v.U.V.< v q C W %X&X3X6X6X%XT R +X%X&X3X6XeX#X!.L.J.D.0 z.q h.",
"^.B.x.c.G.c.M.t E %X&X3X6X=X' Z.C.r E %X2X6XeX5Xr I.A j.C.D e 8 ",
"b j Z.5 U.x b.0 W %X2XwXtX5Xy v z.F ! 5X7XtXyX5Xt v Q.B G.(.5 b ",
"6 3 V.S.S.U.9 0 R @X*X6X6X4X' B.9 A.+X$X2XeXyX8XD.V n L.< R.x k.",
"M.D.B M.m m.F s : ^ Q / ( ( N 9 u t o / / _ :X_ f U c 6 < j.v 5 ",
"J.I.N.x 7 e . + $ % & o.@.+.O.X     * $ o.+.$.+.+.f z P.C < }.A.",
"x.z.G D D p * + $ $ % % o.O.@..     * $ o.+.+.@.@.- n B Z.V.V t ",
"9 S.A.P.D.k p , K Y k a a i a k 8 b p a K i U K , c.|.J 6 l.8 '."
};
