/* XPM */
static char *f9f173f1f36c43659ebbd5742392a775K8S7vDjLH59i2WZT[] = {
/* columns rows colors chars-per-pixel */
"32 32 242 2 ",
"   c #392623",
".  c #6D1610",
"X  c #562D16",
"o  c #6A3415",
"O  c #753918",
"+  c #722F1A",
"@  c #533333",
"#  c #743B28",
"$  c #653C31",
"%  c #4E0C05",
"&  c #2B5B0E",
"*  c #2B5813",
"=  c #365A16",
"-  c #2B520F",
";  c #2E660A",
":  c #32630B",
">  c #3A6A0D",
",  c #386A0B",
"<  c #3C750D",
"1  c #3A6412",
"2  c #3B6D15",
"3  c #3B6A1B",
"4  c #366517",
"5  c #3D7213",
"6  c #3A7518",
"7  c #2E6714",
"8  c #3A5B23",
"9  c #3B6E25",
"0  c #3B6A39",
"q  c #525A1B",
"w  c #64471A",
"e  c #6F5717",
"r  c #46780D",
"t  c #446A19",
"y  c #437414",
"u  c #497416",
"i  c #457A14",
"p  c #4C7B15",
"a  c #44731B",
"s  c #447C1B",
"d  c #4B7C1C",
"f  c #4A751B",
"g  c #557C1E",
"h  c #6C771E",
"j  c #545929",
"k  c #784834",
"l  c #6C4330",
"z  c #486C25",
"x  c #447523",
"c  c #467B22",
"v  c #4A7C24",
"b  c #4C742B",
"n  c #497526",
"m  c #537D25",
"M  c #557D2C",
"N  c #5B7D2B",
"B  c #587629",
"V  c #537C33",
"C  c #597D34",
"Z  c #506C34",
"A  c #657D2A",
"S  c #667B37",
"D  c #737235",
"F  c #0B1E5E",
"G  c #2E2954",
"H  c #051E78",
"J  c #061C66",
"K  c #0D277E",
"L  c #162B74",
"P  c #12296C",
"I  c #35376D",
"U  c #1C3A48",
"Y  c #5C3162",
"T  c #1E4242",
"R  c #30514B",
"E  c #2F5277",
"W  c #577748",
"Q  c #54724D",
"!  c #6D6144",
"~  c #506A77",
"^  c #716E6C",
"/  c #614A59",
"(  c #890101",
")  c #960301",
"_  c #931610",
"`  c #B70001",
"'  c #B7110C",
"]  c #BD1E1E",
"[  c #803E1B",
"{  c #B32B18",
"}  c #90182D",
"|  c #AD1E3F",
" . c #843F2A",
".. c #AF3325",
"X. c #D20101",
"o. c #D50604",
"O. c #CA0E0C",
"+. c #E60402",
"@. c #FC0600",
"#. c #FD0B02",
"$. c #F20B04",
"%. c #E91417",
"&. c #FC2B1F",
"*. c #E73933",
"=. c #ED3427",
"-. c #D12B27",
";. c #974E35",
":. c #9D5A38",
">. c #894A29",
",. c #AD492D",
"<. c #8E783B",
"1. c #B2663E",
"2. c #D44018",
"3. c #D04439",
"4. c #F94238",
"5. c #912B64",
"6. c #971C50",
"7. c #88554B",
"8. c #A65F46",
"9. c #9B7D48",
"0. c #996851",
"q. c #AA6448",
"w. c #B66846",
"e. c #B27354",
"r. c #807C7F",
"t. c #E25E54",
"y. c #C97856",
"u. c #C9775A",
"i. c #CD7D62",
"p. c #EB7775",
"a. c #3C8315",
"s. c #458116",
"d. c #4A8215",
"f. c #4C831C",
"g. c #4A861C",
"h. c #53841B",
"j. c #5C8C1B",
"k. c #558919",
"l. c #59951B",
"z. c #48880E",
"x. c #638B1D",
"c. c #65971C",
"v. c #4C8322",
"b. c #4D882A",
"n. c #548423",
"m. c #538B22",
"M. c #5A8B23",
"N. c #53842C",
"B. c #5B842B",
"V. c #5C8C2A",
"C. c #5A8727",
"Z. c #5C9323",
"A. c #5C922B",
"S. c #579625",
"D. c #5A8836",
"F. c #5E9A3A",
"G. c #648A28",
"H. c #629423",
"J. c #63922C",
"K. c #6C952B",
"L. c #679B27",
"P. c #678938",
"I. c #798E39",
"U. c #669736",
"Y. c #769836",
"T. c #779129",
"R. c #6BA52C",
"E. c #73A52D",
"W. c #7BA72D",
"Q. c #6FA336",
"!. c #78A638",
"~. c #7CB439",
"^. c #5F8044",
"/. c #678548",
"(. c #768D54",
"). c #7AAC44",
"_. c #7E8474",
"`. c #96833E",
"'. c #88B83A",
"]. c #8CAC38",
"[. c #889248",
"{. c #AD9454",
"}. c #86A947",
"|. c #92BD51",
" X c #AAA556",
".X c #849176",
"XX c #94B16A",
"oX c #AEB16B",
"OX c #D0875C",
"+X c #E5815F",
"@X c #D88661",
"#X c #D3946B",
"$X c #E59465",
"%X c #ED936F",
"&X c #ECA279",
"*X c #8BC449",
"=X c #061E87",
"-X c #112E8D",
";X c #0D2B97",
":X c #0E319A",
">X c #122F93",
",X c #1238AA",
"<X c #123BB3",
"1X c #153EBA",
"2X c #2C3FB2",
"3X c #313298",
"4X c #4F3EA4",
"5X c #1540BF",
"6X c #365CBA",
"7X c #2842B2",
"8X c #3D6AB7",
"9X c #335A90",
"0X c #476B8D",
"qX c #6D798B",
"wX c #5465AF",
"eX c #1946CD",
"rX c #1643C9",
"tX c #1A49D5",
"yX c #2E55CF",
"uX c #1F4EE1",
"iX c #2452E5",
"pX c #887F86",
"aX c #8D8C8E",
"sX c #B0BF9B",
"dX c #9699A6",
"fX c #B7B5B8",
"gX c #AEADAF",
"hX c #9DA094",
"jX c #EB8D8D",
"kX c #EFB28D",
"lX c #F0B7B0",
"zX c #B2C5A8",
"xX c #F6C895",
"cX c #CADBBD",
"vX c #F9C3A0",
"bX c #CBD1CF",
"nX c #D4D9E7",
"mX c #DFE5F7",
"MX c #E2E1E4",
"NX c #ECEFF6",
"BX c #F5F9FD",
"VX c #EEF4EE",
/* pixels */
"d B.V.h.H.n.1 i > E.d g g s E.).2 3 d h.Q.P.B M L.t & *Xa V.|.d.",
"l.P.].Q.3 K.G.J.k.M.E.b - y H.4 c B.h e h n p p R.b m.N d.m.b.s ",
"W.r : D.d 1 J.& - v.x.h.A.m B B 1.=.#.4.p.e.I.N i s u c.t L.y ; ",
"2 !.f.n v.b.J.!.9 F.h.u t Y.<.*.$.$.$.p.jXjX9.h.i d d.5 r y 5 Q.",
"v U.R.m.v p j.n.c v a m.y B *.+.+.+.$.*.jXlXt.g L.c S.l.> m.f.V.",
"Y.i M.M H.i 5 i 3 S.f.f.B 3.o.X.X.+.%.%.-...{ ..O x.m P.[.h.6 k.",
"}.x 1 , s ].n.i P.Y.n.A ,.' ` ` O.] . . ;.;.. _ _ h j.t b V v k.",
"2 J.v p V s G.K.k.t Y.3.' ) ( _ ,.;.7.0.OX#X0.w A u , M.V.2 f.< ",
"j.v.P.v C L.h.m f.p G.,.{ . % # y.&XaXdXvXkXgXN a V.J.m N.a M.f ",
"k.5 K.v v h.s.f m.h.2 9.+X;.X + $XkXqXwXlX&XkXxXoXa N.s.V.n.2 d ",
"y h.c.d & f.; s h.s.M.{.+Xw.#  .kX#X/ ^ 0.u.&XxXxXK.E.s.> k.k.x ",
"7 3 d k.n.a H.G.Z.r R.[.&Xu.q.i.&Xi.$     l e.OX X6 a j.= H.J.4 ",
"9 U.v.; j.m V XXXX0.,.2.&.=.3.y.OX@X@Xq.l X $ D ^./.hXbXXXN 1 L.",
"v 5 U.4 XXcXVXBXNXlX&.@.@.@.#.O.;.e.OX$X%X$X#Xm (.fXfXfXMX(.4 H.",
"d.r J.zXBXBXBXBXBXNXp.X.X.X.+.@.O.Y / 8.y.{.h.Q.^ r.^ aXbXbXm.2 ",
"y i S bXnXNXNXBXBXMX[.H.e ) ` +.#.5.2X} } { o k pXaX^ ^ dXsX7 x ",
"P.U.9 .XdXfXnXMXMXzX2 i Q _ X.+.@.| yX5.} o.` ( 7.dXqX^ /.V ].M ",
"B.A E.D._.r.fXfXgX(.A.u 0X3XY 6.5.4X X X6X,._ o q I.U.l.M C d.H.",
"l.g g.m.K.P.hXhX.Xj.K.W yX<X1XrXtXeX~ qXyXS x.g.: g 3 m.Y.2 A.J.",
"d g C.s.n.y ! @ I 0 b 0X1X,X<X1XrXeXrXeX6X8 a N.C.N t 3 Y.c.v.y ",
"h.N.H.k.7 D # G =X>XE 6X:X:X,X<XrXrXeXeX9X|.R.g.z R.R.p z : d H.",
"m Z.3 Y.[.>.Y =XH =X;X2X-X:X,X5XeXtXuXiX8XD.6 }.!.- g T.L.j t m.",
"t ; y D >.O I H H H H K L K :X,X1XrXtXuXiX8X8 v.a J.v.= a.W C ~.",
"f.r K.k o O G P P J J J F P L K -X,X1XeXiXiX~ G.T.`.I.m.1 N.d n.",
"n.l.Y.B X w 8 N.x Q T U R Z x 0 R L ;X1XtXiXtX/ 7.w.y.(.x h.2 a.",
"/.n.M.k.G.f.d s v '.U.B.n.l.u A.M.Z -X,XrXtX7X$ >.8.q.<.C.M 5 & ",
"u t Z.> K.y z.2 a , j.S S = i d h.B E ;X<XrXI O O [ :.S J.(.< y ",
": - m.Z.S.U.1 6 Z.B d 6 6 * D.f.4 Z.9 L :X>X@ o o >.A E.& L.d f.",
"k.V z v.y c.B.i P.Z J.Z.M n.v.Z.= ).z R L @ o o q K.d , ; f.s > ",
"J.U.b.x < a : 2 u m d v.J.u = G.A.u S.t j X w B h.; i V.b & }.B.",
"j.h.N.M B d z f.v I.A J.v.* 3 1 > ].L.h.f.H.t V.h.M.j.z V.M.n 3 ",
"4 l.M.P.D.V.h.; Y.Q H.s.f.x d A.6 H.d k.K.u ).b.& l.'.Z 1 g.& '."
};
