/* XPM */
static char *result[] = {
/* columns rows colors chars-per-pixel */
"40 40 116 2 ",
"   c #3A1B0B",
".  c #3C1C0B",
"X  c #3B1B0C",
"o  c #3A1C0C",
"O  c #3B1C0C",
"+  c #3C1C0C",
"@  c #3C1D0C",
"#  c #3D1D0D",
"$  c #3E1D0C",
"%  c #3E1E0D",
"&  c #3F1E0D",
"*  c #342317",
"=  c #392619",
"-  c #3A281C",
";  c #3C2A1D",
":  c #3D2A1D",
">  c #3C2A1E",
",  c #3D2A1E",
"<  c #3E2A1E",
"1  c #3F2A1E",
"2  c #3E2B1E",
"3  c #3F2B1E",
"4  c #401E0D",
"5  c #401E0E",
"6  c #411E0E",
"7  c #411F0E",
"8  c #402B1E",
"9  c #402C1E",
"0  c #412C1E",
"q  c #402C1F",
"w  c #412C1F",
"e  c #4E2C1A",
"r  c #512614",
"t  c #512714",
"y  c #522714",
"u  c #572A15",
"i  c #592B16",
"p  c #532C19",
"a  c #512C1A",
"s  c #552F1A",
"d  c #432B22",
"f  c #452B20",
"g  c #452B22",
"h  c #442C21",
"j  c #462D22",
"k  c #5D3621",
"l  c #5E3621",
"z  c #5E3622",
"x  c #5F3822",
"c  c #5F3823",
"v  c #603722",
"b  c #603723",
"n  c #613925",
"m  c #643D27",
"M  c #774125",
"N  c #7D4124",
"B  c #7D4025",
"V  c #7D4125",
"C  c #7E4124",
"Z  c #7E4224",
"A  c #7C4229",
"S  c #7F452B",
"D  c #804529",
"F  c #80452B",
"G  c #80462B",
"H  c #84492C",
"J  c #8C4A2A",
"K  c #8D4A2A",
"L  c #8D4B2A",
"P  c #9A502D",
"I  c #9B502D",
"U  c #9B502E",
"Y  c #9B512E",
"T  c #9C512F",
"R  c #9D522F",
"E  c #9E522F",
"W  c #9E532F",
"Q  c #9F532F",
"!  c #9F5330",
"~  c #9D5735",
"^  c #A0532F",
"/  c #A55631",
"(  c #A55632",
")  c #A55732",
"_  c #A65732",
"`  c #A75732",
"'  c #A75733",
"]  c #A75832",
"[  c #A75833",
"{  c #A05836",
"}  c #A25A37",
"|  c #A85833",
" . c #A85933",
".. c #A95933",
"X. c #A85934",
"o. c #A95934",
"O. c #A05838",
"+. c #B05E36",
"@. c #B46139",
"#. c #B66139",
"$. c #B76239",
"%. c #B5623A",
"&. c #B6623A",
"*. c #B86239",
"=. c #B8623A",
"-. c #B8633B",
";. c #B8643A",
":. c #B8643B",
">. c #C16E46",
",. c #C46F47",
"<. c #C26E48",
"1. c #C46F49",
"2. c #C57047",
"3. c #C37148",
"4. c #C57048",
"5. c None",
/* pixels */
"5.5.5.5.5.5.5.5.5.5.5.5.5.5.5.5.5.5.5.5.5.5.5.5.5.5.5.5.5.5.5.5.5.5.5.5.5.5.5.5.",
"5.5.5.5.5.5.5.5.5.5.5.5.5.5.5.5.5.5.5.5.5.5.5.5.5.5.5.5.5.5.5.5.5.5.5.5.5.5.5.5.",
"5.5.5.5.5.5.5.5.5.5.5.5.5.5.5.5.5.5.5.5.5.5.5.5.5.5.5.5.5.5.5.5.5.5.5.5.5.5.5.5.",
"5.5.5.5.2.,.,.,.4.,.1.,.2.,.1.,.,.,.>.5.5.3.,.1.,.1.,.,.,.,.,.,.2.1.,.<.5.5.5.5.",
"5.5.5.}  .o.o.o.o.o.o.o.....o.o.o.o.) n m [ o.o.o.o.o.o.o.o.o.o.o.o.o.| G 5.5.5.",
"5.5.5.O.[ | |  .| | | | | | | | | | ( k c _ | | | | | | | | | | | | | ] S 5.5.5.",
"5.5.5.O.[ | | |  .| | | | | | | | | ( k c _ | | | | | | |  .| | | | | [ F 5.5.5.",
"5.5.5.O.[ | | | | | | | |  .| | | | ( z c _ | | | |  .| | | | | |  .| [ F 5.5.5.",
"5.5.5.O.[ | | | | | | | |  .|  .| | ( z c _ | | | | | | | | |  .| | | ] F 5.5.5.",
"5.5.5.O.[  .|  .| |  .| | | |  .| | ( z c _ | | | |  .| | | | | | | | ` F 5.5.5.",
"5.5.5.O.| |  .| | | | | | | | | | | ( l c _ | | | | | | | | | | | | | [ F 5.5.5.",
"5.5.5.O.| | | |  .| | |  .| | | | | ( z c _ | | | | | | | | | | |  .| ' F 5.5.5.",
"5.5.5.O.[ | | | | | | | | | | |  . .( l c _ | | | | | | | | | |  .| | [ F 5.5.5.",
"5.5.5.5.  o X O O O O + + + + + . @ & : ; % # $ $ % % & & 4 4 4 6 6 7 5 5.5.5.5.",
"5.5.5.5.1 w w w w 0 3 > > w w w w w w w w 0 0 w w w 0 > > 2 w w w w w = 5.5.5.5.",
"5.5.5.5.$.=.*.*.*.*./ 2 H *.=.*.*.*.*.*.*.*.*.*.*.*.*.M 2 +.*.*.*.*.*.#.5.5.5.5.",
"5.5.5.{ [  .| | | | P 0 J | | | |  .| | | | | | |  .| B 3 ^ | | |  .| ` F 5.5.5.",
"5.5.5.O.[ | | | | ..P q L | | | | | | | | | |  .| |  .V 3 Q | | | | | ` F 5.5.5.",
"5.5.5.O.[ | | | | | P 9 J  .| | | | | |  .| | | | | | N 3 Q | | | | | [ F 5.5.5.",
"5.5.5.{ [ | | | | | I 8 K | | | | | |  .|  .| | | | | V 3 Q | |  .X.| [ F 5.5.5.",
"5.5.5.O.[ | X.| | | I 9 L  .|  .|  .| | | | | | | | | N 3 Q | | | | | ` F 5.5.5.",
"5.5.5.O.[ | | | | | U 9 L | | | | | | |  .| | | |  .| C 3 Q | | | | | [ F 5.5.5.",
"5.5.5.O.[ | | | | | U 9 K | | | | | | |  .| | | | |  .C 3 Q | |  .| | [ F 5.5.5.",
"5.5.5.{ [  .| | |  .Y 9 K | | | | | | | | | | | | | | Z 3 Q | |  .| | [ F 5.5.5.",
"5.5.5.5.y t t t t t i < s t t t t t t t t t t t t t t p , u t t r t t t 5.5.5.5.",
"5.5.5.5.- ; > ; ; ; > > > ; ; > ; ; > ; ; ; ; > > ; ; ; > > ; ; ; ; ; * 5.5.5.5.",
"5.5.5.5.-.-.:.-.:.-.-.:.;.-.:.:.:.:.@.3 2 %.:.-.:.:.:.;.;.-.:.:.-.:.:.&.5.5.5.5.",
"5.5.5.O.[ | | | | | | |  .| | | |  .( v c _ | | |  .| | | | | | | |  .] F 5.5.5.",
"5.5.5.O.[ | X.| | | | | | | | | | | ( v c _ | | | | | | | | | | | | | ] F 5.5.5.",
"5.5.5.O.| |  .| | | | | | | | | | | ( v c _ | | | | | | | | | | | | | ] D 5.5.5.",
"5.5.5.O.| | | | | | o.| | | | | | | ( v c _  .| | | | | | | | | | | | [ F 5.5.5.",
"5.5.5.O.[ | | | | | | | | | | | | | ( v c _ | | |  .| | | | | | | | | [ F 5.5.5.",
"5.5.5.O.|  .| | | | | | | | | | | | ( b c _ | | | | | | | | | |  .| | ` F 5.5.5.",
"5.5.5.O.[ | |  .| | |  .|  .| | | | ) v c _ | | | | | | | | | |  .| | [ F 5.5.5.",
"5.5.5.O.| | | | | | | | | | | | | | ) v x _ | | | | | | | | | | | | | ] F 5.5.5.",
"5.5.5.~ W ! ! ! ! ! ! ! ! ! ! ! ! ! T a e R ! ! ! ! ! ! ! ! ! ! ! ! ! E A 5.5.5.",
"5.5.5.5.j h h h h h h h h h h h h h g 5.5.f h h h h h h h h h h h h h d 5.5.5.5.",
"5.5.5.5.5.5.5.5.5.5.5.5.5.5.5.5.5.5.5.5.5.5.5.5.5.5.5.5.5.5.5.5.5.5.5.5.5.5.5.5.",
"5.5.5.5.5.5.5.5.5.5.5.5.5.5.5.5.5.5.5.5.5.5.5.5.5.5.5.5.5.5.5.5.5.5.5.5.5.5.5.5.",
"5.5.5.5.5.5.5.5.5.5.5.5.5.5.5.5.5.5.5.5.5.5.5.5.5.5.5.5.5.5.5.5.5.5.5.5.5.5.5.5."
};
