/* XPM */
static char *result[] = {
/* columns rows colors chars-per-pixel */
"32 32 179 2 ",
"   c #34180C",
".  c #391C0E",
"X  c #39240E",
"o  c #3F2416",
"O  c #3D271A",
"+  c #3D2A1E",
"@  c #402F12",
"#  c #432D1F",
"$  c #60301A",
"%  c #6E371E",
"&  c #6F381E",
"*  c #503322",
"=  c #5F3A26",
"-  c #603A26",
";  c #743B20",
":  c #244D0F",
">  c #255A0F",
",  c #2C5C0D",
"<  c #2A4715",
"1  c #3B4F1F",
"2  c #225D11",
"3  c #2E5B10",
"4  c #2F5018",
"5  c #325617",
"6  c #355A11",
"7  c #2E6E07",
"8  c #2D650E",
"9  c #326409",
"0  c #3C670D",
"q  c #3E6C0E",
"w  c #3A790C",
"e  c #2F6910",
"r  c #366310",
"t  c #396313",
"y  c #3C6D15",
"u  c #376419",
"i  c #3A6319",
"p  c #3C6A1B",
"a  c #356914",
"s  c #367217",
"d  c #3E7313",
"f  c #3F7A16",
"g  c #3C701D",
"h  c #3F4C22",
"j  c #3B6C24",
"k  c #474E1B",
"l  c #475116",
"z  c #416F0F",
"x  c #44730E",
"c  c #467C0E",
"v  c #42651A",
"b  c #436B1D",
"n  c #4B6C1B",
"m  c #437413",
"M  c #487516",
"N  c #457B16",
"B  c #4D7C15",
"V  c #43731A",
"C  c #4D751C",
"Z  c #457D1D",
"A  c #4C7C1C",
"S  c #537E1D",
"D  c #587E1F",
"F  c #5A4428",
"G  c #744127",
"H  c #7C472C",
"J  c #4F6E22",
"K  c #4A652F",
"L  c #486D2A",
"P  c #457523",
"I  c #497524",
"U  c #477921",
"Y  c #4C7B24",
"T  c #4A732B",
"R  c #4D7E2B",
"E  c #597721",
"W  c #517D24",
"Q  c #5D7E27",
"!  c #557B2D",
"~  c #587F2A",
"^  c #5B742C",
"/  c #556435",
"(  c #5C7630",
")  c #557E37",
"_  c #5B7936",
"`  c #6E642F",
"'  c #617B2F",
"]  c #667F30",
"[  c #536141",
"{  c #894627",
"}  c #884628",
"|  c #8C4828",
" . c #974E2C",
".. c #994F2D",
"X. c #9B512E",
"o. c #A0532F",
"O. c #A25530",
"+. c #A75A35",
"@. c #A85833",
"#. c #B25F37",
"$. c #A36235",
"%. c #B4623A",
"&. c #388119",
"*. c #468016",
"=. c #4B8314",
"-. c #4C8917",
";. c #47801E",
":. c #4C831E",
">. c #4E891A",
",. c #588613",
"<. c #538B17",
"1. c #53841C",
"2. c #59871E",
"3. c #548A1E",
"4. c #5E8D1C",
"5. c #599615",
"6. c #57951E",
"7. c #5F9C1C",
"8. c #5A931A",
"9. c #618D1E",
"0. c #6B8B1D",
"q. c #63971E",
"w. c #68951E",
"e. c #62981F",
"r. c #4D8221",
"t. c #4E852C",
"y. c #4D8A2C",
"u. c #538423",
"i. c #558B22",
"p. c #5B8B24",
"a. c #53832A",
"s. c #5C852C",
"d. c #5D8B2B",
"f. c #5C8526",
"g. c #5E952B",
"h. c #5F9A28",
"j. c #5C9524",
"k. c #5A833C",
"l. c #628A22",
"z. c #628C2A",
"x. c #629322",
"c. c #6A9626",
"v. c #629A24",
"b. c #6E9D27",
"n. c #63922B",
"m. c #6C932C",
"M. c #699D2F",
"N. c #608332",
"B. c #658835",
"V. c #668F38",
"C. c #6C8C3A",
"Z. c #658339",
"A. c #778F3B",
"S. c #629434",
"D. c #669C31",
"F. c #649739",
"G. c #729533",
"H. c #7E9037",
"J. c #719C36",
"K. c #749B3C",
"L. c #6CA32F",
"P. c #73A42D",
"I. c #7BA72D",
"U. c #6FA336",
"Y. c #78A538",
"T. c #79B230",
"R. c #7CB439",
"E. c #6D8B44",
"W. c #76AC41",
"Q. c #7FAA44",
"!. c #88AF37",
"~. c #85A234",
"^. c #91A937",
"/. c #85BE3F",
"(. c #89BA38",
"). c #88A945",
"_. c #84A24F",
"`. c #8FBD4F",
"'. c #8BC449",
/* pixels */
"A s.z.3.v.~ r N 0 P.A D S Z P.).s a A 3.U.V.E R v.n 3 '.b z.`.=.",
"7.B.~.P.p G.l.z.<.p.P.T : x x.i U r.N q 9.T B B L.T i.~ =.i.t.Z ",
"I.B 9 N.A v n.6 < u.0.2.n.Q ( C N.T.a.p.C n ~.' B ;.S w.n D.d 7 ",
"y Y.;.@.#.#.#.%.#.#.%.+.#.#.#.X.k @.#.#.#.#.#.+.%.+.#.#.#.o.y U.",
"Y M.M.@.@.@.@.@.@.@.@.@.@.@.@. .+ o.@.@.@.@.@.@.@.@.@.@.@. .1.z.",
"G.N p.o.@.@.@.@.@.@.@.@.O.@.@. .+ o.@.@.@.@.@.@.@.@.@.@.@. .p -.",
").V t o.@.@.@.@.@.@.@.@.@.@.@. .+ o.+.@.@.@.@.@.@.@.@.@.@. .Y <.",
"y n.Y o.@.@.@.@.@.@.@.@.@.@.@. .+ o.+.+.@.@.@.@.@.@.@.@.@. .u.w ",
"2.r.Z.O.@.@.@.@.@.@.@.@.@.@.@. .+ X.@.@.@.@.@.+.@.@.@.@.@. .p.C ",
",.m m.O.@.@.@.@.@.@.@.@.@.@.@. .+ O.@.@.@.@.@.+.@.@.@.+.@. .p Z ",
"m 1.w. .X...X.X..... .X.X...X.{ +  .X.X.....X. . .X.X.X...| i.P ",
"e p B l O O O O O O O O O O O O + O O O O O O + O O O O O k z.u ",
"j F.r.$.%.%.%.%.+.+ H %.%.%.%.%.%.%.%.%.#.%.; + +.%.%.%.%.+.r b.",
"Y m V.O.+.@.@.@.O.# X.@.@.@.@.@.@.@.@.@.@.@.} # @.@.@.@.@...u x.",
"-.c j.o.@.@.@.@.O.# ..@.@.@.@.@.@.@.@.@.@.@.} # @.@.@.@.+. .3.d ",
"d N ^ o.@.@.@.@.O.# ..+.@.@.@.@.@.@.@.@.@.@.} # O.@.@.@.+. .a P ",
"C.S.b O.@.@.@.@.o.# X.@.@.@.@.@.@.@.@.@.@.@.} # O.@.@.@.@. .!.! ",
"s.] P.o.@.@.@.@.O.#  .@.@.@.@.@.@.@.@.@.@.@.{ # O.@.@.@.@. .S l.",
"5.A :.o.@.@.@.@.O.# X.@.@.@.@.@.@.@.@.@.@.@.} # @.@.@.@.@. .z.h.",
"A S f.o.@.@.@.@.@.#  .@.@.@.@.@.@.@.@.@.@.@.} # O.@.@.@.@.X.W m ",
"u.a.l.@   .     . + o   .                   o O .         X A h.",
"W j.p ` - - - - = = = = - - - * + * = - = - - - - - - - = F v i.",
"b 8 m @.@.@.@.#.+.@.+.@.@.@.+.X.+ O.@.+.+.@.@.#.+.@.+.@.@.X._ R.",
":.x c.O.@.@.@.@.@.@.@.@.@.@.@...+ X.@.@.@.@.@.@.@.@.@.@.@. .A u.",
"u.8.J.O.@.@.@.@.@.@.@.@.@.@.@. .+ X.@.@.@.@.@.@.@.@.@.@.@. .y &.",
"E.i.p.O.@.@.@.@.@.@.@.@.@.@.@...+ X.@.@.@.@.@.@.@.@.@.@.@.X.m , ",
"V b p.O.@.@.@.@.@.@.@.@.@.@.@. .+ o.@.@.@.@.@.@.@.@.@.@.@. .q m ",
"0 4 i.O.@.@.@.@.@.@.@.@.@.@.@. .+ o.@.@.@.@.@.@.@.@.@.+.@. .C Z ",
">.) L O.@.@.@.@.@.@.@.@.@.@.@. .+ o.@.@.@.@.@.@.@.@.@.@.@. .A q ",
"S.V.y.; % % % % & & & & % % % % 1 & & & & & & & & & & & & $ _.s.",
"4.1.t.! ! A J A Y A.' S.r.5 p t 0 !.M.1.u.e.p d.1.p.p.K d.i.I g ",
"6 6.s.s.k.d.1.9 K.[ e.B :.P Z g.N x.A 3.m.M W.y.> 6././ t -.2 (."
};
